ISO-10303-21;
HEADER;
/* Generated by software containing ST-Developer
 * from STEP Tools, Inc. (www.steptools.com) 
 */

FILE_DESCRIPTION(
/* description */ ('',
'CAx-IF Rec.Pracs.---Representation and Presentation of Product Manufa
cturing Information (PMI)---4.0---2014-10-13'),
/* implementation_level */ '2;1');

FILE_NAME(
/* name */ 'Domino_IR_sensor_mount.step',
/* time_stamp */ '2024-12-07T09:33:44-05:00',
/* author */ (''),
/* organization */ (''),
/* preprocessor_version */ 'ST-DEVELOPER v20',
/* originating_system */ 'Autodesk Translation Framework v13.20.0.188',

/* authorisation */ '');

FILE_SCHEMA (('AP242_MANAGED_MODEL_BASED_3D_ENGINEERING_MIM_LF { 1 0 10303 442 1 1 4 }'));
ENDSEC;

DATA;
#10=MECHANICAL_DESIGN_GEOMETRIC_PRESENTATION_REPRESENTATION('',(#13),#1622);
#11=SHAPE_REPRESENTATION_RELATIONSHIP('SRR','None',#1629,#12);
#12=ADVANCED_BREP_SHAPE_REPRESENTATION('',(#14),#1621);
#13=STYLED_ITEM('',(#1638),#14);
#14=MANIFOLD_SOLID_BREP('Body1',#954);
#15=FACE_BOUND('',#123,.T.);
#16=FACE_BOUND('',#126,.T.);
#17=FACE_BOUND('',#127,.T.);
#18=FACE_BOUND('',#129,.T.);
#19=FACE_BOUND('',#130,.T.);
#20=FACE_BOUND('',#132,.T.);
#21=FACE_BOUND('',#133,.T.);
#22=FACE_BOUND('',#136,.T.);
#23=FACE_BOUND('',#138,.T.);
#24=FACE_BOUND('',#139,.T.);
#25=FACE_BOUND('',#142,.T.);
#26=FACE_BOUND('',#143,.T.);
#27=FACE_BOUND('',#144,.T.);
#28=FACE_BOUND('',#148,.T.);
#29=FACE_BOUND('',#164,.T.);
#30=FACE_BOUND('',#166,.T.);
#31=FACE_BOUND('',#167,.T.);
#32=FACE_BOUND('',#168,.T.);
#33=ELLIPSE('',#998,1.33022221559489,1.25);
#34=ELLIPSE('',#1007,1.33022221559489,1.25);
#35=PLANE('',#971);
#36=PLANE('',#975);
#37=PLANE('',#985);
#38=PLANE('',#995);
#39=PLANE('',#1014);
#40=PLANE('',#1015);
#41=PLANE('',#1016);
#42=PLANE('',#1017);
#43=PLANE('',#1018);
#44=PLANE('',#1019);
#45=PLANE('',#1020);
#46=PLANE('',#1021);
#47=PLANE('',#1022);
#48=PLANE('',#1023);
#49=PLANE('',#1035);
#50=PLANE('',#1038);
#51=PLANE('',#1043);
#52=PLANE('',#1052);
#53=PLANE('',#1061);
#54=PLANE('',#1062);
#55=PLANE('',#1063);
#56=PLANE('',#1064);
#57=FACE_OUTER_BOUND('',#104,.T.);
#58=FACE_OUTER_BOUND('',#105,.T.);
#59=FACE_OUTER_BOUND('',#106,.T.);
#60=FACE_OUTER_BOUND('',#107,.T.);
#61=FACE_OUTER_BOUND('',#108,.T.);
#62=FACE_OUTER_BOUND('',#109,.T.);
#63=FACE_OUTER_BOUND('',#110,.T.);
#64=FACE_OUTER_BOUND('',#111,.T.);
#65=FACE_OUTER_BOUND('',#112,.T.);
#66=FACE_OUTER_BOUND('',#113,.T.);
#67=FACE_OUTER_BOUND('',#114,.T.);
#68=FACE_OUTER_BOUND('',#115,.T.);
#69=FACE_OUTER_BOUND('',#116,.T.);
#70=FACE_OUTER_BOUND('',#117,.T.);
#71=FACE_OUTER_BOUND('',#118,.T.);
#72=FACE_OUTER_BOUND('',#119,.T.);
#73=FACE_OUTER_BOUND('',#120,.T.);
#74=FACE_OUTER_BOUND('',#121,.T.);
#75=FACE_OUTER_BOUND('',#122,.T.);
#76=FACE_OUTER_BOUND('',#124,.T.);
#77=FACE_OUTER_BOUND('',#125,.T.);
#78=FACE_OUTER_BOUND('',#128,.T.);
#79=FACE_OUTER_BOUND('',#131,.T.);
#80=FACE_OUTER_BOUND('',#134,.T.);
#81=FACE_OUTER_BOUND('',#135,.T.);
#82=FACE_OUTER_BOUND('',#137,.T.);
#83=FACE_OUTER_BOUND('',#140,.T.);
#84=FACE_OUTER_BOUND('',#141,.T.);
#85=FACE_OUTER_BOUND('',#145,.T.);
#86=FACE_OUTER_BOUND('',#146,.T.);
#87=FACE_OUTER_BOUND('',#147,.T.);
#88=FACE_OUTER_BOUND('',#149,.T.);
#89=FACE_OUTER_BOUND('',#150,.T.);
#90=FACE_OUTER_BOUND('',#151,.T.);
#91=FACE_OUTER_BOUND('',#152,.T.);
#92=FACE_OUTER_BOUND('',#153,.T.);
#93=FACE_OUTER_BOUND('',#154,.T.);
#94=FACE_OUTER_BOUND('',#155,.T.);
#95=FACE_OUTER_BOUND('',#156,.T.);
#96=FACE_OUTER_BOUND('',#157,.T.);
#97=FACE_OUTER_BOUND('',#158,.T.);
#98=FACE_OUTER_BOUND('',#159,.T.);
#99=FACE_OUTER_BOUND('',#160,.T.);
#100=FACE_OUTER_BOUND('',#161,.T.);
#101=FACE_OUTER_BOUND('',#162,.T.);
#102=FACE_OUTER_BOUND('',#163,.T.);
#103=FACE_OUTER_BOUND('',#165,.T.);
#104=EDGE_LOOP('',(#612,#613,#614,#615));
#105=EDGE_LOOP('',(#616,#617,#618,#619));
#106=EDGE_LOOP('',(#620,#621,#622,#623));
#107=EDGE_LOOP('',(#624,#625,#626,#627));
#108=EDGE_LOOP('',(#628,#629,#630,#631));
#109=EDGE_LOOP('',(#632,#633,#634,#635));
#110=EDGE_LOOP('',(#636,#637,#638,#639));
#111=EDGE_LOOP('',(#640,#641,#642,#643));
#112=EDGE_LOOP('',(#644,#645,#646,#647));
#113=EDGE_LOOP('',(#648,#649,#650,#651));
#114=EDGE_LOOP('',(#652,#653,#654,#655));
#115=EDGE_LOOP('',(#656,#657,#658,#659));
#116=EDGE_LOOP('',(#660,#661,#662,#663));
#117=EDGE_LOOP('',(#664,#665,#666,#667));
#118=EDGE_LOOP('',(#668,#669,#670,#671));
#119=EDGE_LOOP('',(#672,#673,#674,#675));
#120=EDGE_LOOP('',(#676,#677,#678,#679));
#121=EDGE_LOOP('',(#680,#681,#682,#683));
#122=EDGE_LOOP('',(#684,#685,#686,#687));
#123=EDGE_LOOP('',(#688));
#124=EDGE_LOOP('',(#689,#690,#691,#692));
#125=EDGE_LOOP('',(#693,#694,#695,#696));
#126=EDGE_LOOP('',(#697));
#127=EDGE_LOOP('',(#698));
#128=EDGE_LOOP('',(#699,#700,#701,#702));
#129=EDGE_LOOP('',(#703));
#130=EDGE_LOOP('',(#704));
#131=EDGE_LOOP('',(#705,#706,#707,#708));
#132=EDGE_LOOP('',(#709));
#133=EDGE_LOOP('',(#710));
#134=EDGE_LOOP('',(#711,#712,#713,#714));
#135=EDGE_LOOP('',(#715,#716,#717,#718));
#136=EDGE_LOOP('',(#719));
#137=EDGE_LOOP('',(#720,#721,#722,#723));
#138=EDGE_LOOP('',(#724));
#139=EDGE_LOOP('',(#725));
#140=EDGE_LOOP('',(#726,#727,#728,#729,#730,#731,#732,#733,#734,#735));
#141=EDGE_LOOP('',(#736,#737,#738,#739,#740,#741,#742,#743,#744,#745,#746,
#747,#748,#749,#750,#751));
#142=EDGE_LOOP('',(#752,#753,#754,#755,#756,#757));
#143=EDGE_LOOP('',(#758,#759,#760,#761,#762,#763));
#144=EDGE_LOOP('',(#764));
#145=EDGE_LOOP('',(#765,#766,#767,#768));
#146=EDGE_LOOP('',(#769,#770,#771,#772,#773,#774,#775,#776,#777,#778));
#147=EDGE_LOOP('',(#779,#780,#781,#782,#783,#784,#785,#786));
#148=EDGE_LOOP('',(#787));
#149=EDGE_LOOP('',(#788,#789,#790,#791));
#150=EDGE_LOOP('',(#792,#793,#794,#795));
#151=EDGE_LOOP('',(#796,#797,#798,#799));
#152=EDGE_LOOP('',(#800,#801,#802,#803));
#153=EDGE_LOOP('',(#804,#805,#806,#807));
#154=EDGE_LOOP('',(#808,#809,#810,#811));
#155=EDGE_LOOP('',(#812,#813,#814,#815));
#156=EDGE_LOOP('',(#816,#817,#818,#819));
#157=EDGE_LOOP('',(#820,#821,#822,#823));
#158=EDGE_LOOP('',(#824,#825,#826,#827));
#159=EDGE_LOOP('',(#828,#829,#830,#831));
#160=EDGE_LOOP('',(#832,#833,#834,#835));
#161=EDGE_LOOP('',(#836,#837,#838,#839));
#162=EDGE_LOOP('',(#840,#841,#842,#843));
#163=EDGE_LOOP('',(#844,#845,#846,#847,#848,#849,#850,#851));
#164=EDGE_LOOP('',(#852));
#165=EDGE_LOOP('',(#853,#854,#855,#856,#857,#858,#859,#860,#861,#862,#863,
#864,#865,#866,#867,#868));
#166=EDGE_LOOP('',(#869,#870,#871,#872,#873,#874));
#167=EDGE_LOOP('',(#875,#876,#877,#878,#879,#880));
#168=EDGE_LOOP('',(#881));
#169=LINE('',#1352,#254);
#170=LINE('',#1355,#255);
#171=LINE('',#1358,#256);
#172=LINE('',#1360,#257);
#173=LINE('',#1361,#258);
#174=LINE('',#1367,#259);
#175=LINE('',#1370,#260);
#176=LINE('',#1372,#261);
#177=LINE('',#1373,#262);
#178=LINE('',#1378,#263);
#179=LINE('',#1388,#264);
#180=LINE('',#1391,#265);
#181=LINE('',#1394,#266);
#182=LINE('',#1396,#267);
#183=LINE('',#1397,#268);
#184=LINE('',#1402,#269);
#185=LINE('',#1409,#270);
#186=LINE('',#1414,#271);
#187=LINE('',#1417,#272);
#188=LINE('',#1418,#273);
#189=LINE('',#1423,#274);
#190=LINE('',#1429,#275);
#191=LINE('',#1435,#276);
#192=LINE('',#1441,#277);
#193=LINE('',#1447,#278);
#194=LINE('',#1453,#279);
#195=LINE('',#1458,#280);
#196=LINE('',#1460,#281);
#197=LINE('',#1462,#282);
#198=LINE('',#1463,#283);
#199=LINE('',#1467,#284);
#200=LINE('',#1469,#285);
#201=LINE('',#1471,#286);
#202=LINE('',#1472,#287);
#203=LINE('',#1475,#288);
#204=LINE('',#1477,#289);
#205=LINE('',#1478,#290);
#206=LINE('',#1481,#291);
#207=LINE('',#1483,#292);
#208=LINE('',#1484,#293);
#209=LINE('',#1487,#294);
#210=LINE('',#1489,#295);
#211=LINE('',#1490,#296);
#212=LINE('',#1493,#297);
#213=LINE('',#1495,#298);
#214=LINE('',#1496,#299);
#215=LINE('',#1500,#300);
#216=LINE('',#1502,#301);
#217=LINE('',#1504,#302);
#218=LINE('',#1505,#303);
#219=LINE('',#1507,#304);
#220=LINE('',#1508,#305);
#221=LINE('',#1510,#306);
#222=LINE('',#1511,#307);
#223=LINE('',#1514,#308);
#224=LINE('',#1518,#309);
#225=LINE('',#1522,#310);
#226=LINE('',#1530,#311);
#227=LINE('',#1534,#312);
#228=LINE('',#1537,#313);
#229=LINE('',#1545,#314);
#230=LINE('',#1548,#315);
#231=LINE('',#1551,#316);
#232=LINE('',#1555,#317);
#233=LINE('',#1558,#318);
#234=LINE('',#1559,#319);
#235=LINE('',#1563,#320);
#236=LINE('',#1568,#321);
#237=LINE('',#1569,#322);
#238=LINE('',#1572,#323);
#239=LINE('',#1573,#324);
#240=LINE('',#1577,#325);
#241=LINE('',#1580,#326);
#242=LINE('',#1583,#327);
#243=LINE('',#1590,#328);
#244=LINE('',#1591,#329);
#245=LINE('',#1594,#330);
#246=LINE('',#1595,#331);
#247=LINE('',#1599,#332);
#248=LINE('',#1604,#333);
#249=LINE('',#1605,#334);
#250=LINE('',#1611,#335);
#251=LINE('',#1613,#336);
#252=LINE('',#1615,#337);
#253=LINE('',#1617,#338);
#254=VECTOR('',#1071,10.);
#255=VECTOR('',#1074,10.);
#256=VECTOR('',#1077,10.);
#257=VECTOR('',#1078,10.);
#258=VECTOR('',#1079,10.);
#259=VECTOR('',#1084,5.);
#260=VECTOR('',#1087,5.);
#261=VECTOR('',#1090,10.);
#262=VECTOR('',#1091,10.);
#263=VECTOR('',#1096,10.);
#264=VECTOR('',#1109,5.);
#265=VECTOR('',#1112,5.);
#266=VECTOR('',#1115,10.);
#267=VECTOR('',#1116,10.);
#268=VECTOR('',#1117,10.);
#269=VECTOR('',#1122,10.);
#270=VECTOR('',#1131,10.);
#271=VECTOR('',#1136,10.);
#272=VECTOR('',#1141,10.);
#273=VECTOR('',#1142,10.);
#274=VECTOR('',#1147,1.25);
#275=VECTOR('',#1154,1.25);
#276=VECTOR('',#1161,1.25);
#277=VECTOR('',#1168,1.25);
#278=VECTOR('',#1175,1.25);
#279=VECTOR('',#1182,1.25);
#280=VECTOR('',#1187,10.);
#281=VECTOR('',#1188,10.);
#282=VECTOR('',#1189,10.);
#283=VECTOR('',#1190,10.);
#284=VECTOR('',#1193,10.);
#285=VECTOR('',#1194,10.);
#286=VECTOR('',#1195,10.);
#287=VECTOR('',#1196,10.);
#288=VECTOR('',#1199,10.);
#289=VECTOR('',#1200,10.);
#290=VECTOR('',#1201,10.);
#291=VECTOR('',#1204,10.);
#292=VECTOR('',#1205,10.);
#293=VECTOR('',#1206,10.);
#294=VECTOR('',#1209,10.);
#295=VECTOR('',#1210,10.);
#296=VECTOR('',#1211,10.);
#297=VECTOR('',#1214,10.);
#298=VECTOR('',#1215,10.);
#299=VECTOR('',#1216,10.);
#300=VECTOR('',#1219,10.);
#301=VECTOR('',#1220,10.);
#302=VECTOR('',#1221,10.);
#303=VECTOR('',#1222,10.);
#304=VECTOR('',#1225,10.);
#305=VECTOR('',#1226,10.);
#306=VECTOR('',#1229,10.);
#307=VECTOR('',#1230,10.);
#308=VECTOR('',#1233,10.);
#309=VECTOR('',#1236,10.);
#310=VECTOR('',#1239,10.);
#311=VECTOR('',#1246,10.);
#312=VECTOR('',#1249,10.);
#313=VECTOR('',#1252,10.);
#314=VECTOR('',#1259,10.);
#315=VECTOR('',#1262,10.);
#316=VECTOR('',#1265,10.);
#317=VECTOR('',#1270,10.);
#318=VECTOR('',#1273,10.);
#319=VECTOR('',#1274,10.);
#320=VECTOR('',#1279,10.);
#321=VECTOR('',#1284,10.);
#322=VECTOR('',#1285,10.);
#323=VECTOR('',#1288,10.);
#324=VECTOR('',#1289,10.);
#325=VECTOR('',#1294,10.);
#326=VECTOR('',#1297,10.);
#327=VECTOR('',#1300,10.);
#328=VECTOR('',#1309,10.);
#329=VECTOR('',#1310,10.);
#330=VECTOR('',#1313,10.);
#331=VECTOR('',#1314,10.);
#332=VECTOR('',#1319,10.);
#333=VECTOR('',#1324,10.);
#334=VECTOR('',#1325,10.);
#335=VECTOR('',#1334,2.75);
#336=VECTOR('',#1337,10.);
#337=VECTOR('',#1340,10.);
#338=VECTOR('',#1343,10.);
#339=CIRCLE('',#969,5.);
#340=CIRCLE('',#970,5.);
#341=CIRCLE('',#973,5.);
#342=CIRCLE('',#974,5.);
#343=CIRCLE('',#977,5.);
#344=CIRCLE('',#978,5.);
#345=CIRCLE('',#980,80.);
#346=CIRCLE('',#981,80.);
#347=CIRCLE('',#983,5.);
#348=CIRCLE('',#984,5.);
#349=CIRCLE('',#987,80.);
#350=CIRCLE('',#988,80.);
#351=CIRCLE('',#990,5.);
#352=CIRCLE('',#991,5.);
#353=CIRCLE('',#993,5.);
#354=CIRCLE('',#994,5.);
#355=CIRCLE('',#997,1.25);
#356=CIRCLE('',#1000,1.25);
#357=CIRCLE('',#1001,1.25);
#358=CIRCLE('',#1003,1.25);
#359=CIRCLE('',#1004,1.25);
#360=CIRCLE('',#1006,1.25);
#361=CIRCLE('',#1009,1.25);
#362=CIRCLE('',#1010,1.25);
#363=CIRCLE('',#1012,1.25);
#364=CIRCLE('',#1013,1.25);
#365=CIRCLE('',#1024,2.);
#366=CIRCLE('',#1025,2.);
#367=CIRCLE('',#1026,2.);
#368=CIRCLE('',#1027,6.);
#369=CIRCLE('',#1028,2.);
#370=CIRCLE('',#1029,2.);
#371=CIRCLE('',#1030,2.);
#372=CIRCLE('',#1031,2.75);
#373=CIRCLE('',#1033,2.);
#374=CIRCLE('',#1034,2.);
#375=CIRCLE('',#1036,2.);
#376=CIRCLE('',#1037,142.5);
#377=CIRCLE('',#1040,2.);
#378=CIRCLE('',#1042,2.);
#379=CIRCLE('',#1045,2.);
#380=CIRCLE('',#1047,2.);
#381=CIRCLE('',#1049,6.);
#382=CIRCLE('',#1051,2.);
#383=CIRCLE('',#1054,2.);
#384=CIRCLE('',#1056,2.);
#385=CIRCLE('',#1058,142.5);
#386=CIRCLE('',#1060,2.75);
#387=VERTEX_POINT('',#1348);
#388=VERTEX_POINT('',#1349);
#389=VERTEX_POINT('',#1351);
#390=VERTEX_POINT('',#1353);
#391=VERTEX_POINT('',#1357);
#392=VERTEX_POINT('',#1359);
#393=VERTEX_POINT('',#1363);
#394=VERTEX_POINT('',#1364);
#395=VERTEX_POINT('',#1366);
#396=VERTEX_POINT('',#1368);
#397=VERTEX_POINT('',#1375);
#398=VERTEX_POINT('',#1377);
#399=VERTEX_POINT('',#1384);
#400=VERTEX_POINT('',#1385);
#401=VERTEX_POINT('',#1387);
#402=VERTEX_POINT('',#1389);
#403=VERTEX_POINT('',#1393);
#404=VERTEX_POINT('',#1395);
#405=VERTEX_POINT('',#1399);
#406=VERTEX_POINT('',#1401);
#407=VERTEX_POINT('',#1405);
#408=VERTEX_POINT('',#1407);
#409=VERTEX_POINT('',#1411);
#410=VERTEX_POINT('',#1413);
#411=VERTEX_POINT('',#1420);
#412=VERTEX_POINT('',#1422);
#413=VERTEX_POINT('',#1426);
#414=VERTEX_POINT('',#1428);
#415=VERTEX_POINT('',#1432);
#416=VERTEX_POINT('',#1434);
#417=VERTEX_POINT('',#1438);
#418=VERTEX_POINT('',#1440);
#419=VERTEX_POINT('',#1444);
#420=VERTEX_POINT('',#1446);
#421=VERTEX_POINT('',#1450);
#422=VERTEX_POINT('',#1452);
#423=VERTEX_POINT('',#1456);
#424=VERTEX_POINT('',#1457);
#425=VERTEX_POINT('',#1459);
#426=VERTEX_POINT('',#1461);
#427=VERTEX_POINT('',#1465);
#428=VERTEX_POINT('',#1466);
#429=VERTEX_POINT('',#1468);
#430=VERTEX_POINT('',#1470);
#431=VERTEX_POINT('',#1474);
#432=VERTEX_POINT('',#1476);
#433=VERTEX_POINT('',#1480);
#434=VERTEX_POINT('',#1482);
#435=VERTEX_POINT('',#1486);
#436=VERTEX_POINT('',#1488);
#437=VERTEX_POINT('',#1492);
#438=VERTEX_POINT('',#1494);
#439=VERTEX_POINT('',#1498);
#440=VERTEX_POINT('',#1499);
#441=VERTEX_POINT('',#1501);
#442=VERTEX_POINT('',#1503);
#443=VERTEX_POINT('',#1513);
#444=VERTEX_POINT('',#1515);
#445=VERTEX_POINT('',#1517);
#446=VERTEX_POINT('',#1519);
#447=VERTEX_POINT('',#1521);
#448=VERTEX_POINT('',#1523);
#449=VERTEX_POINT('',#1525);
#450=VERTEX_POINT('',#1527);
#451=VERTEX_POINT('',#1529);
#452=VERTEX_POINT('',#1531);
#453=VERTEX_POINT('',#1533);
#454=VERTEX_POINT('',#1535);
#455=VERTEX_POINT('',#1538);
#456=VERTEX_POINT('',#1541);
#457=VERTEX_POINT('',#1542);
#458=VERTEX_POINT('',#1544);
#459=VERTEX_POINT('',#1546);
#460=VERTEX_POINT('',#1550);
#461=VERTEX_POINT('',#1552);
#462=VERTEX_POINT('',#1557);
#463=VERTEX_POINT('',#1561);
#464=VERTEX_POINT('',#1565);
#465=VERTEX_POINT('',#1566);
#466=VERTEX_POINT('',#1571);
#467=VERTEX_POINT('',#1575);
#468=VERTEX_POINT('',#1579);
#469=VERTEX_POINT('',#1581);
#470=VERTEX_POINT('',#1587);
#471=VERTEX_POINT('',#1588);
#472=VERTEX_POINT('',#1593);
#473=VERTEX_POINT('',#1597);
#474=VERTEX_POINT('',#1601);
#475=VERTEX_POINT('',#1602);
#476=VERTEX_POINT('',#1609);
#477=EDGE_CURVE('',#387,#388,#339,.T.);
#478=EDGE_CURVE('',#388,#389,#169,.T.);
#479=EDGE_CURVE('',#389,#390,#340,.T.);
#480=EDGE_CURVE('',#390,#387,#170,.T.);
#481=EDGE_CURVE('',#391,#388,#171,.T.);
#482=EDGE_CURVE('',#392,#391,#172,.T.);
#483=EDGE_CURVE('',#389,#392,#173,.T.);
#484=EDGE_CURVE('',#393,#394,#341,.T.);
#485=EDGE_CURVE('',#394,#395,#174,.T.);
#486=EDGE_CURVE('',#396,#395,#342,.F.);
#487=EDGE_CURVE('',#396,#393,#175,.T.);
#488=EDGE_CURVE('',#393,#390,#176,.T.);
#489=EDGE_CURVE('',#387,#396,#177,.T.);
#490=EDGE_CURVE('',#391,#397,#343,.T.);
#491=EDGE_CURVE('',#397,#398,#178,.T.);
#492=EDGE_CURVE('',#398,#392,#344,.T.);
#493=EDGE_CURVE('',#398,#394,#345,.T.);
#494=EDGE_CURVE('',#395,#397,#346,.T.);
#495=EDGE_CURVE('',#399,#400,#347,.F.);
#496=EDGE_CURVE('',#399,#401,#179,.T.);
#497=EDGE_CURVE('',#401,#402,#348,.T.);
#498=EDGE_CURVE('',#402,#400,#180,.T.);
#499=EDGE_CURVE('',#403,#402,#181,.T.);
#500=EDGE_CURVE('',#404,#403,#182,.T.);
#501=EDGE_CURVE('',#400,#404,#183,.T.);
#502=EDGE_CURVE('',#405,#399,#349,.T.);
#503=EDGE_CURVE('',#406,#405,#184,.T.);
#504=EDGE_CURVE('',#401,#406,#350,.T.);
#505=EDGE_CURVE('',#407,#404,#351,.T.);
#506=EDGE_CURVE('',#403,#408,#352,.T.);
#507=EDGE_CURVE('',#408,#407,#185,.T.);
#508=EDGE_CURVE('',#405,#409,#353,.T.);
#509=EDGE_CURVE('',#409,#410,#186,.T.);
#510=EDGE_CURVE('',#410,#406,#354,.T.);
#511=EDGE_CURVE('',#410,#408,#187,.T.);
#512=EDGE_CURVE('',#407,#409,#188,.T.);
#513=EDGE_CURVE('',#411,#411,#355,.T.);
#514=EDGE_CURVE('',#411,#412,#189,.T.);
#515=EDGE_CURVE('',#412,#412,#33,.T.);
#516=EDGE_CURVE('',#413,#413,#356,.T.);
#517=EDGE_CURVE('',#413,#414,#190,.T.);
#518=EDGE_CURVE('',#414,#414,#357,.T.);
#519=EDGE_CURVE('',#415,#415,#358,.T.);
#520=EDGE_CURVE('',#415,#416,#191,.T.);
#521=EDGE_CURVE('',#416,#416,#359,.T.);
#522=EDGE_CURVE('',#417,#417,#360,.T.);
#523=EDGE_CURVE('',#417,#418,#192,.T.);
#524=EDGE_CURVE('',#418,#418,#34,.T.);
#525=EDGE_CURVE('',#419,#419,#361,.T.);
#526=EDGE_CURVE('',#419,#420,#193,.T.);
#527=EDGE_CURVE('',#420,#420,#362,.T.);
#528=EDGE_CURVE('',#421,#421,#363,.T.);
#529=EDGE_CURVE('',#421,#422,#194,.T.);
#530=EDGE_CURVE('',#422,#422,#364,.T.);
#531=EDGE_CURVE('',#423,#424,#195,.T.);
#532=EDGE_CURVE('',#423,#425,#196,.T.);
#533=EDGE_CURVE('',#426,#425,#197,.T.);
#534=EDGE_CURVE('',#424,#426,#198,.T.);
#535=EDGE_CURVE('',#427,#428,#199,.T.);
#536=EDGE_CURVE('',#427,#429,#200,.T.);
#537=EDGE_CURVE('',#430,#429,#201,.T.);
#538=EDGE_CURVE('',#428,#430,#202,.T.);
#539=EDGE_CURVE('',#428,#431,#203,.T.);
#540=EDGE_CURVE('',#432,#430,#204,.T.);
#541=EDGE_CURVE('',#431,#432,#205,.T.);
#542=EDGE_CURVE('',#431,#433,#206,.T.);
#543=EDGE_CURVE('',#434,#432,#207,.T.);
#544=EDGE_CURVE('',#433,#434,#208,.T.);
#545=EDGE_CURVE('',#433,#435,#209,.T.);
#546=EDGE_CURVE('',#436,#434,#210,.T.);
#547=EDGE_CURVE('',#435,#436,#211,.T.);
#548=EDGE_CURVE('',#435,#437,#212,.T.);
#549=EDGE_CURVE('',#438,#436,#213,.T.);
#550=EDGE_CURVE('',#437,#438,#214,.T.);
#551=EDGE_CURVE('',#439,#440,#215,.T.);
#552=EDGE_CURVE('',#439,#441,#216,.T.);
#553=EDGE_CURVE('',#442,#441,#217,.T.);
#554=EDGE_CURVE('',#440,#442,#218,.T.);
#555=EDGE_CURVE('',#440,#423,#219,.T.);
#556=EDGE_CURVE('',#425,#442,#220,.T.);
#557=EDGE_CURVE('',#441,#438,#221,.T.);
#558=EDGE_CURVE('',#429,#426,#222,.T.);
#559=EDGE_CURVE('',#443,#424,#223,.T.);
#560=EDGE_CURVE('',#444,#443,#365,.T.);
#561=EDGE_CURVE('',#444,#445,#224,.T.);
#562=EDGE_CURVE('',#446,#445,#366,.T.);
#563=EDGE_CURVE('',#446,#447,#225,.T.);
#564=EDGE_CURVE('',#448,#447,#367,.T.);
#565=EDGE_CURVE('',#449,#448,#368,.T.);
#566=EDGE_CURVE('',#450,#449,#369,.T.);
#567=EDGE_CURVE('',#450,#451,#226,.T.);
#568=EDGE_CURVE('',#452,#451,#370,.T.);
#569=EDGE_CURVE('',#452,#453,#227,.T.);
#570=EDGE_CURVE('',#454,#453,#371,.T.);
#571=EDGE_CURVE('',#439,#454,#228,.T.);
#572=EDGE_CURVE('',#455,#455,#372,.T.);
#573=EDGE_CURVE('',#456,#457,#373,.T.);
#574=EDGE_CURVE('',#457,#458,#229,.T.);
#575=EDGE_CURVE('',#458,#459,#374,.T.);
#576=EDGE_CURVE('',#459,#456,#230,.T.);
#577=EDGE_CURVE('',#460,#437,#231,.T.);
#578=EDGE_CURVE('',#461,#460,#375,.T.);
#579=EDGE_CURVE('',#459,#461,#376,.T.);
#580=EDGE_CURVE('',#427,#458,#232,.T.);
#581=EDGE_CURVE('',#462,#457,#233,.T.);
#582=EDGE_CURVE('',#443,#462,#234,.T.);
#583=EDGE_CURVE('',#462,#463,#377,.T.);
#584=EDGE_CURVE('',#463,#444,#235,.T.);
#585=EDGE_CURVE('',#464,#465,#378,.T.);
#586=EDGE_CURVE('',#465,#446,#236,.T.);
#587=EDGE_CURVE('',#445,#464,#237,.T.);
#588=EDGE_CURVE('',#466,#465,#238,.T.);
#589=EDGE_CURVE('',#447,#466,#239,.T.);
#590=EDGE_CURVE('',#466,#467,#379,.T.);
#591=EDGE_CURVE('',#467,#448,#240,.T.);
#592=EDGE_CURVE('',#449,#468,#241,.T.);
#593=EDGE_CURVE('',#468,#469,#380,.T.);
#594=EDGE_CURVE('',#469,#450,#242,.T.);
#595=EDGE_CURVE('',#468,#467,#381,.T.);
#596=EDGE_CURVE('',#470,#471,#382,.T.);
#597=EDGE_CURVE('',#471,#452,#243,.T.);
#598=EDGE_CURVE('',#451,#470,#244,.T.);
#599=EDGE_CURVE('',#472,#471,#245,.T.);
#600=EDGE_CURVE('',#453,#472,#246,.T.);
#601=EDGE_CURVE('',#472,#473,#383,.T.);
#602=EDGE_CURVE('',#473,#454,#247,.T.);
#603=EDGE_CURVE('',#474,#475,#384,.T.);
#604=EDGE_CURVE('',#475,#461,#248,.T.);
#605=EDGE_CURVE('',#460,#474,#249,.T.);
#606=EDGE_CURVE('',#456,#475,#385,.T.);
#607=EDGE_CURVE('',#476,#476,#386,.T.);
#608=EDGE_CURVE('',#476,#455,#250,.T.);
#609=EDGE_CURVE('',#464,#463,#251,.T.);
#610=EDGE_CURVE('',#470,#469,#252,.T.);
#611=EDGE_CURVE('',#474,#473,#253,.T.);
#612=ORIENTED_EDGE('',*,*,#477,.T.);
#613=ORIENTED_EDGE('',*,*,#478,.T.);
#614=ORIENTED_EDGE('',*,*,#479,.T.);
#615=ORIENTED_EDGE('',*,*,#480,.T.);
#616=ORIENTED_EDGE('',*,*,#478,.F.);
#617=ORIENTED_EDGE('',*,*,#481,.F.);
#618=ORIENTED_EDGE('',*,*,#482,.F.);
#619=ORIENTED_EDGE('',*,*,#483,.F.);
#620=ORIENTED_EDGE('',*,*,#484,.T.);
#621=ORIENTED_EDGE('',*,*,#485,.T.);
#622=ORIENTED_EDGE('',*,*,#486,.F.);
#623=ORIENTED_EDGE('',*,*,#487,.T.);
#624=ORIENTED_EDGE('',*,*,#480,.F.);
#625=ORIENTED_EDGE('',*,*,#488,.F.);
#626=ORIENTED_EDGE('',*,*,#487,.F.);
#627=ORIENTED_EDGE('',*,*,#489,.F.);
#628=ORIENTED_EDGE('',*,*,#490,.T.);
#629=ORIENTED_EDGE('',*,*,#491,.T.);
#630=ORIENTED_EDGE('',*,*,#492,.T.);
#631=ORIENTED_EDGE('',*,*,#482,.T.);
#632=ORIENTED_EDGE('',*,*,#485,.F.);
#633=ORIENTED_EDGE('',*,*,#493,.F.);
#634=ORIENTED_EDGE('',*,*,#491,.F.);
#635=ORIENTED_EDGE('',*,*,#494,.F.);
#636=ORIENTED_EDGE('',*,*,#495,.F.);
#637=ORIENTED_EDGE('',*,*,#496,.T.);
#638=ORIENTED_EDGE('',*,*,#497,.T.);
#639=ORIENTED_EDGE('',*,*,#498,.T.);
#640=ORIENTED_EDGE('',*,*,#498,.F.);
#641=ORIENTED_EDGE('',*,*,#499,.F.);
#642=ORIENTED_EDGE('',*,*,#500,.F.);
#643=ORIENTED_EDGE('',*,*,#501,.F.);
#644=ORIENTED_EDGE('',*,*,#496,.F.);
#645=ORIENTED_EDGE('',*,*,#502,.F.);
#646=ORIENTED_EDGE('',*,*,#503,.F.);
#647=ORIENTED_EDGE('',*,*,#504,.F.);
#648=ORIENTED_EDGE('',*,*,#505,.T.);
#649=ORIENTED_EDGE('',*,*,#500,.T.);
#650=ORIENTED_EDGE('',*,*,#506,.T.);
#651=ORIENTED_EDGE('',*,*,#507,.T.);
#652=ORIENTED_EDGE('',*,*,#508,.T.);
#653=ORIENTED_EDGE('',*,*,#509,.T.);
#654=ORIENTED_EDGE('',*,*,#510,.T.);
#655=ORIENTED_EDGE('',*,*,#503,.T.);
#656=ORIENTED_EDGE('',*,*,#507,.F.);
#657=ORIENTED_EDGE('',*,*,#511,.F.);
#658=ORIENTED_EDGE('',*,*,#509,.F.);
#659=ORIENTED_EDGE('',*,*,#512,.F.);
#660=ORIENTED_EDGE('',*,*,#513,.F.);
#661=ORIENTED_EDGE('',*,*,#514,.T.);
#662=ORIENTED_EDGE('',*,*,#515,.F.);
#663=ORIENTED_EDGE('',*,*,#514,.F.);
#664=ORIENTED_EDGE('',*,*,#516,.F.);
#665=ORIENTED_EDGE('',*,*,#517,.T.);
#666=ORIENTED_EDGE('',*,*,#518,.F.);
#667=ORIENTED_EDGE('',*,*,#517,.F.);
#668=ORIENTED_EDGE('',*,*,#519,.F.);
#669=ORIENTED_EDGE('',*,*,#520,.T.);
#670=ORIENTED_EDGE('',*,*,#521,.F.);
#671=ORIENTED_EDGE('',*,*,#520,.F.);
#672=ORIENTED_EDGE('',*,*,#522,.F.);
#673=ORIENTED_EDGE('',*,*,#523,.T.);
#674=ORIENTED_EDGE('',*,*,#524,.F.);
#675=ORIENTED_EDGE('',*,*,#523,.F.);
#676=ORIENTED_EDGE('',*,*,#525,.F.);
#677=ORIENTED_EDGE('',*,*,#526,.T.);
#678=ORIENTED_EDGE('',*,*,#527,.F.);
#679=ORIENTED_EDGE('',*,*,#526,.F.);
#680=ORIENTED_EDGE('',*,*,#528,.F.);
#681=ORIENTED_EDGE('',*,*,#529,.T.);
#682=ORIENTED_EDGE('',*,*,#530,.F.);
#683=ORIENTED_EDGE('',*,*,#529,.F.);
#684=ORIENTED_EDGE('',*,*,#531,.F.);
#685=ORIENTED_EDGE('',*,*,#532,.T.);
#686=ORIENTED_EDGE('',*,*,#533,.F.);
#687=ORIENTED_EDGE('',*,*,#534,.F.);
#688=ORIENTED_EDGE('',*,*,#518,.T.);
#689=ORIENTED_EDGE('',*,*,#535,.F.);
#690=ORIENTED_EDGE('',*,*,#536,.T.);
#691=ORIENTED_EDGE('',*,*,#537,.F.);
#692=ORIENTED_EDGE('',*,*,#538,.F.);
#693=ORIENTED_EDGE('',*,*,#539,.F.);
#694=ORIENTED_EDGE('',*,*,#538,.T.);
#695=ORIENTED_EDGE('',*,*,#540,.F.);
#696=ORIENTED_EDGE('',*,*,#541,.F.);
#697=ORIENTED_EDGE('',*,*,#513,.T.);
#698=ORIENTED_EDGE('',*,*,#516,.T.);
#699=ORIENTED_EDGE('',*,*,#542,.F.);
#700=ORIENTED_EDGE('',*,*,#541,.T.);
#701=ORIENTED_EDGE('',*,*,#543,.F.);
#702=ORIENTED_EDGE('',*,*,#544,.F.);
#703=ORIENTED_EDGE('',*,*,#525,.T.);
#704=ORIENTED_EDGE('',*,*,#528,.T.);
#705=ORIENTED_EDGE('',*,*,#545,.F.);
#706=ORIENTED_EDGE('',*,*,#544,.T.);
#707=ORIENTED_EDGE('',*,*,#546,.F.);
#708=ORIENTED_EDGE('',*,*,#547,.F.);
#709=ORIENTED_EDGE('',*,*,#519,.T.);
#710=ORIENTED_EDGE('',*,*,#522,.T.);
#711=ORIENTED_EDGE('',*,*,#548,.F.);
#712=ORIENTED_EDGE('',*,*,#547,.T.);
#713=ORIENTED_EDGE('',*,*,#549,.F.);
#714=ORIENTED_EDGE('',*,*,#550,.F.);
#715=ORIENTED_EDGE('',*,*,#551,.F.);
#716=ORIENTED_EDGE('',*,*,#552,.T.);
#717=ORIENTED_EDGE('',*,*,#553,.F.);
#718=ORIENTED_EDGE('',*,*,#554,.F.);
#719=ORIENTED_EDGE('',*,*,#521,.T.);
#720=ORIENTED_EDGE('',*,*,#555,.F.);
#721=ORIENTED_EDGE('',*,*,#554,.T.);
#722=ORIENTED_EDGE('',*,*,#556,.F.);
#723=ORIENTED_EDGE('',*,*,#532,.F.);
#724=ORIENTED_EDGE('',*,*,#527,.T.);
#725=ORIENTED_EDGE('',*,*,#530,.T.);
#726=ORIENTED_EDGE('',*,*,#556,.T.);
#727=ORIENTED_EDGE('',*,*,#553,.T.);
#728=ORIENTED_EDGE('',*,*,#557,.T.);
#729=ORIENTED_EDGE('',*,*,#549,.T.);
#730=ORIENTED_EDGE('',*,*,#546,.T.);
#731=ORIENTED_EDGE('',*,*,#543,.T.);
#732=ORIENTED_EDGE('',*,*,#540,.T.);
#733=ORIENTED_EDGE('',*,*,#537,.T.);
#734=ORIENTED_EDGE('',*,*,#558,.T.);
#735=ORIENTED_EDGE('',*,*,#533,.T.);
#736=ORIENTED_EDGE('',*,*,#551,.T.);
#737=ORIENTED_EDGE('',*,*,#555,.T.);
#738=ORIENTED_EDGE('',*,*,#531,.T.);
#739=ORIENTED_EDGE('',*,*,#559,.F.);
#740=ORIENTED_EDGE('',*,*,#560,.F.);
#741=ORIENTED_EDGE('',*,*,#561,.T.);
#742=ORIENTED_EDGE('',*,*,#562,.F.);
#743=ORIENTED_EDGE('',*,*,#563,.T.);
#744=ORIENTED_EDGE('',*,*,#564,.F.);
#745=ORIENTED_EDGE('',*,*,#565,.F.);
#746=ORIENTED_EDGE('',*,*,#566,.F.);
#747=ORIENTED_EDGE('',*,*,#567,.T.);
#748=ORIENTED_EDGE('',*,*,#568,.F.);
#749=ORIENTED_EDGE('',*,*,#569,.T.);
#750=ORIENTED_EDGE('',*,*,#570,.F.);
#751=ORIENTED_EDGE('',*,*,#571,.F.);
#752=ORIENTED_EDGE('',*,*,#502,.T.);
#753=ORIENTED_EDGE('',*,*,#495,.T.);
#754=ORIENTED_EDGE('',*,*,#501,.T.);
#755=ORIENTED_EDGE('',*,*,#505,.F.);
#756=ORIENTED_EDGE('',*,*,#512,.T.);
#757=ORIENTED_EDGE('',*,*,#508,.F.);
#758=ORIENTED_EDGE('',*,*,#481,.T.);
#759=ORIENTED_EDGE('',*,*,#477,.F.);
#760=ORIENTED_EDGE('',*,*,#489,.T.);
#761=ORIENTED_EDGE('',*,*,#486,.T.);
#762=ORIENTED_EDGE('',*,*,#494,.T.);
#763=ORIENTED_EDGE('',*,*,#490,.F.);
#764=ORIENTED_EDGE('',*,*,#572,.F.);
#765=ORIENTED_EDGE('',*,*,#573,.T.);
#766=ORIENTED_EDGE('',*,*,#574,.T.);
#767=ORIENTED_EDGE('',*,*,#575,.T.);
#768=ORIENTED_EDGE('',*,*,#576,.T.);
#769=ORIENTED_EDGE('',*,*,#548,.T.);
#770=ORIENTED_EDGE('',*,*,#577,.F.);
#771=ORIENTED_EDGE('',*,*,#578,.F.);
#772=ORIENTED_EDGE('',*,*,#579,.F.);
#773=ORIENTED_EDGE('',*,*,#575,.F.);
#774=ORIENTED_EDGE('',*,*,#580,.F.);
#775=ORIENTED_EDGE('',*,*,#535,.T.);
#776=ORIENTED_EDGE('',*,*,#539,.T.);
#777=ORIENTED_EDGE('',*,*,#542,.T.);
#778=ORIENTED_EDGE('',*,*,#545,.T.);
#779=ORIENTED_EDGE('',*,*,#574,.F.);
#780=ORIENTED_EDGE('',*,*,#581,.F.);
#781=ORIENTED_EDGE('',*,*,#582,.F.);
#782=ORIENTED_EDGE('',*,*,#559,.T.);
#783=ORIENTED_EDGE('',*,*,#534,.T.);
#784=ORIENTED_EDGE('',*,*,#558,.F.);
#785=ORIENTED_EDGE('',*,*,#536,.F.);
#786=ORIENTED_EDGE('',*,*,#580,.T.);
#787=ORIENTED_EDGE('',*,*,#515,.T.);
#788=ORIENTED_EDGE('',*,*,#560,.T.);
#789=ORIENTED_EDGE('',*,*,#582,.T.);
#790=ORIENTED_EDGE('',*,*,#583,.T.);
#791=ORIENTED_EDGE('',*,*,#584,.T.);
#792=ORIENTED_EDGE('',*,*,#585,.T.);
#793=ORIENTED_EDGE('',*,*,#586,.T.);
#794=ORIENTED_EDGE('',*,*,#562,.T.);
#795=ORIENTED_EDGE('',*,*,#587,.T.);
#796=ORIENTED_EDGE('',*,*,#586,.F.);
#797=ORIENTED_EDGE('',*,*,#588,.F.);
#798=ORIENTED_EDGE('',*,*,#589,.F.);
#799=ORIENTED_EDGE('',*,*,#563,.F.);
#800=ORIENTED_EDGE('',*,*,#564,.T.);
#801=ORIENTED_EDGE('',*,*,#589,.T.);
#802=ORIENTED_EDGE('',*,*,#590,.T.);
#803=ORIENTED_EDGE('',*,*,#591,.T.);
#804=ORIENTED_EDGE('',*,*,#566,.T.);
#805=ORIENTED_EDGE('',*,*,#592,.T.);
#806=ORIENTED_EDGE('',*,*,#593,.T.);
#807=ORIENTED_EDGE('',*,*,#594,.T.);
#808=ORIENTED_EDGE('',*,*,#591,.F.);
#809=ORIENTED_EDGE('',*,*,#595,.F.);
#810=ORIENTED_EDGE('',*,*,#592,.F.);
#811=ORIENTED_EDGE('',*,*,#565,.T.);
#812=ORIENTED_EDGE('',*,*,#596,.T.);
#813=ORIENTED_EDGE('',*,*,#597,.T.);
#814=ORIENTED_EDGE('',*,*,#568,.T.);
#815=ORIENTED_EDGE('',*,*,#598,.T.);
#816=ORIENTED_EDGE('',*,*,#597,.F.);
#817=ORIENTED_EDGE('',*,*,#599,.F.);
#818=ORIENTED_EDGE('',*,*,#600,.F.);
#819=ORIENTED_EDGE('',*,*,#569,.F.);
#820=ORIENTED_EDGE('',*,*,#570,.T.);
#821=ORIENTED_EDGE('',*,*,#600,.T.);
#822=ORIENTED_EDGE('',*,*,#601,.T.);
#823=ORIENTED_EDGE('',*,*,#602,.T.);
#824=ORIENTED_EDGE('',*,*,#603,.T.);
#825=ORIENTED_EDGE('',*,*,#604,.T.);
#826=ORIENTED_EDGE('',*,*,#578,.T.);
#827=ORIENTED_EDGE('',*,*,#605,.T.);
#828=ORIENTED_EDGE('',*,*,#576,.F.);
#829=ORIENTED_EDGE('',*,*,#579,.T.);
#830=ORIENTED_EDGE('',*,*,#604,.F.);
#831=ORIENTED_EDGE('',*,*,#606,.F.);
#832=ORIENTED_EDGE('',*,*,#607,.F.);
#833=ORIENTED_EDGE('',*,*,#608,.T.);
#834=ORIENTED_EDGE('',*,*,#572,.T.);
#835=ORIENTED_EDGE('',*,*,#608,.F.);
#836=ORIENTED_EDGE('',*,*,#584,.F.);
#837=ORIENTED_EDGE('',*,*,#609,.F.);
#838=ORIENTED_EDGE('',*,*,#587,.F.);
#839=ORIENTED_EDGE('',*,*,#561,.F.);
#840=ORIENTED_EDGE('',*,*,#594,.F.);
#841=ORIENTED_EDGE('',*,*,#610,.F.);
#842=ORIENTED_EDGE('',*,*,#598,.F.);
#843=ORIENTED_EDGE('',*,*,#567,.F.);
#844=ORIENTED_EDGE('',*,*,#602,.F.);
#845=ORIENTED_EDGE('',*,*,#611,.F.);
#846=ORIENTED_EDGE('',*,*,#605,.F.);
#847=ORIENTED_EDGE('',*,*,#577,.T.);
#848=ORIENTED_EDGE('',*,*,#550,.T.);
#849=ORIENTED_EDGE('',*,*,#557,.F.);
#850=ORIENTED_EDGE('',*,*,#552,.F.);
#851=ORIENTED_EDGE('',*,*,#571,.T.);
#852=ORIENTED_EDGE('',*,*,#524,.T.);
#853=ORIENTED_EDGE('',*,*,#573,.F.);
#854=ORIENTED_EDGE('',*,*,#606,.T.);
#855=ORIENTED_EDGE('',*,*,#603,.F.);
#856=ORIENTED_EDGE('',*,*,#611,.T.);
#857=ORIENTED_EDGE('',*,*,#601,.F.);
#858=ORIENTED_EDGE('',*,*,#599,.T.);
#859=ORIENTED_EDGE('',*,*,#596,.F.);
#860=ORIENTED_EDGE('',*,*,#610,.T.);
#861=ORIENTED_EDGE('',*,*,#593,.F.);
#862=ORIENTED_EDGE('',*,*,#595,.T.);
#863=ORIENTED_EDGE('',*,*,#590,.F.);
#864=ORIENTED_EDGE('',*,*,#588,.T.);
#865=ORIENTED_EDGE('',*,*,#585,.F.);
#866=ORIENTED_EDGE('',*,*,#609,.T.);
#867=ORIENTED_EDGE('',*,*,#583,.F.);
#868=ORIENTED_EDGE('',*,*,#581,.T.);
#869=ORIENTED_EDGE('',*,*,#488,.T.);
#870=ORIENTED_EDGE('',*,*,#479,.F.);
#871=ORIENTED_EDGE('',*,*,#483,.T.);
#872=ORIENTED_EDGE('',*,*,#492,.F.);
#873=ORIENTED_EDGE('',*,*,#493,.T.);
#874=ORIENTED_EDGE('',*,*,#484,.F.);
#875=ORIENTED_EDGE('',*,*,#504,.T.);
#876=ORIENTED_EDGE('',*,*,#510,.F.);
#877=ORIENTED_EDGE('',*,*,#511,.T.);
#878=ORIENTED_EDGE('',*,*,#506,.F.);
#879=ORIENTED_EDGE('',*,*,#499,.T.);
#880=ORIENTED_EDGE('',*,*,#497,.F.);
#881=ORIENTED_EDGE('',*,*,#607,.T.);
#882=CYLINDRICAL_SURFACE('',#968,5.);
#883=CYLINDRICAL_SURFACE('',#972,5.);
#884=CYLINDRICAL_SURFACE('',#976,5.);
#885=CYLINDRICAL_SURFACE('',#979,80.);
#886=CYLINDRICAL_SURFACE('',#982,5.);
#887=CYLINDRICAL_SURFACE('',#986,80.);
#888=CYLINDRICAL_SURFACE('',#989,5.);
#889=CYLINDRICAL_SURFACE('',#992,5.);
#890=CYLINDRICAL_SURFACE('',#996,1.25);
#891=CYLINDRICAL_SURFACE('',#999,1.25);
#892=CYLINDRICAL_SURFACE('',#1002,1.25);
#893=CYLINDRICAL_SURFACE('',#1005,1.25);
#894=CYLINDRICAL_SURFACE('',#1008,1.25);
#895=CYLINDRICAL_SURFACE('',#1011,1.25);
#896=CYLINDRICAL_SURFACE('',#1032,2.);
#897=CYLINDRICAL_SURFACE('',#1039,2.);
#898=CYLINDRICAL_SURFACE('',#1041,2.);
#899=CYLINDRICAL_SURFACE('',#1044,2.);
#900=CYLINDRICAL_SURFACE('',#1046,2.);
#901=CYLINDRICAL_SURFACE('',#1048,6.);
#902=CYLINDRICAL_SURFACE('',#1050,2.);
#903=CYLINDRICAL_SURFACE('',#1053,2.);
#904=CYLINDRICAL_SURFACE('',#1055,2.);
#905=CYLINDRICAL_SURFACE('',#1057,142.5);
#906=CYLINDRICAL_SURFACE('',#1059,2.75);
#907=ADVANCED_FACE('',(#57),#882,.F.);
#908=ADVANCED_FACE('',(#58),#35,.F.);
#909=ADVANCED_FACE('',(#59),#883,.F.);
#910=ADVANCED_FACE('',(#60),#36,.F.);
#911=ADVANCED_FACE('',(#61),#884,.F.);
#912=ADVANCED_FACE('',(#62),#885,.F.);
#913=ADVANCED_FACE('',(#63),#886,.F.);
#914=ADVANCED_FACE('',(#64),#37,.F.);
#915=ADVANCED_FACE('',(#65),#887,.F.);
#916=ADVANCED_FACE('',(#66),#888,.F.);
#917=ADVANCED_FACE('',(#67),#889,.F.);
#918=ADVANCED_FACE('',(#68),#38,.F.);
#919=ADVANCED_FACE('',(#69),#890,.F.);
#920=ADVANCED_FACE('',(#70),#891,.F.);
#921=ADVANCED_FACE('',(#71),#892,.F.);
#922=ADVANCED_FACE('',(#72),#893,.F.);
#923=ADVANCED_FACE('',(#73),#894,.F.);
#924=ADVANCED_FACE('',(#74),#895,.F.);
#925=ADVANCED_FACE('',(#75,#15),#39,.T.);
#926=ADVANCED_FACE('',(#76),#40,.T.);
#927=ADVANCED_FACE('',(#77,#16,#17),#41,.T.);
#928=ADVANCED_FACE('',(#78,#18,#19),#42,.T.);
#929=ADVANCED_FACE('',(#79,#20,#21),#43,.T.);
#930=ADVANCED_FACE('',(#80),#44,.T.);
#931=ADVANCED_FACE('',(#81,#22),#45,.T.);
#932=ADVANCED_FACE('',(#82,#23,#24),#46,.T.);
#933=ADVANCED_FACE('',(#83),#47,.T.);
#934=ADVANCED_FACE('',(#84,#25,#26,#27),#48,.F.);
#935=ADVANCED_FACE('',(#85),#896,.T.);
#936=ADVANCED_FACE('',(#86),#49,.F.);
#937=ADVANCED_FACE('',(#87,#28),#50,.T.);
#938=ADVANCED_FACE('',(#88),#897,.F.);
#939=ADVANCED_FACE('',(#89),#898,.T.);
#940=ADVANCED_FACE('',(#90),#51,.T.);
#941=ADVANCED_FACE('',(#91),#899,.F.);
#942=ADVANCED_FACE('',(#92),#900,.F.);
#943=ADVANCED_FACE('',(#93),#901,.T.);
#944=ADVANCED_FACE('',(#94),#902,.T.);
#945=ADVANCED_FACE('',(#95),#52,.T.);
#946=ADVANCED_FACE('',(#96),#903,.F.);
#947=ADVANCED_FACE('',(#97),#904,.T.);
#948=ADVANCED_FACE('',(#98),#905,.T.);
#949=ADVANCED_FACE('',(#99),#906,.F.);
#950=ADVANCED_FACE('',(#100),#53,.T.);
#951=ADVANCED_FACE('',(#101),#54,.T.);
#952=ADVANCED_FACE('',(#102,#29),#55,.T.);
#953=ADVANCED_FACE('',(#103,#30,#31,#32),#56,.T.);
#954=CLOSED_SHELL('',(#907,#908,#909,#910,#911,#912,#913,#914,#915,#916,
#917,#918,#919,#920,#921,#922,#923,#924,#925,#926,#927,#928,#929,#930,#931,
#932,#933,#934,#935,#936,#937,#938,#939,#940,#941,#942,#943,#944,#945,#946,
#947,#948,#949,#950,#951,#952,#953));
#955=DERIVED_UNIT_ELEMENT(#957,1.);
#956=DERIVED_UNIT_ELEMENT(#1624,-3.);
#957=(
MASS_UNIT()
NAMED_UNIT(*)
SI_UNIT(.KILO.,.GRAM.)
);
#958=DERIVED_UNIT((#955,#956));
#959=MEASURE_REPRESENTATION_ITEM('density measure',
POSITIVE_RATIO_MEASURE(7850.),#958);
#960=PROPERTY_DEFINITION_REPRESENTATION(#965,#962);
#961=PROPERTY_DEFINITION_REPRESENTATION(#966,#963);
#962=REPRESENTATION('material name',(#964),#1621);
#963=REPRESENTATION('density',(#959),#1621);
#964=DESCRIPTIVE_REPRESENTATION_ITEM('Steel','Steel');
#965=PROPERTY_DEFINITION('material property','material name',#1631);
#966=PROPERTY_DEFINITION('material property','density of part',#1631);
#967=AXIS2_PLACEMENT_3D('',#1346,#1065,#1066);
#968=AXIS2_PLACEMENT_3D('',#1347,#1067,#1068);
#969=AXIS2_PLACEMENT_3D('',#1350,#1069,#1070);
#970=AXIS2_PLACEMENT_3D('',#1354,#1072,#1073);
#971=AXIS2_PLACEMENT_3D('',#1356,#1075,#1076);
#972=AXIS2_PLACEMENT_3D('',#1362,#1080,#1081);
#973=AXIS2_PLACEMENT_3D('',#1365,#1082,#1083);
#974=AXIS2_PLACEMENT_3D('',#1369,#1085,#1086);
#975=AXIS2_PLACEMENT_3D('',#1371,#1088,#1089);
#976=AXIS2_PLACEMENT_3D('',#1374,#1092,#1093);
#977=AXIS2_PLACEMENT_3D('',#1376,#1094,#1095);
#978=AXIS2_PLACEMENT_3D('',#1379,#1097,#1098);
#979=AXIS2_PLACEMENT_3D('',#1380,#1099,#1100);
#980=AXIS2_PLACEMENT_3D('',#1381,#1101,#1102);
#981=AXIS2_PLACEMENT_3D('',#1382,#1103,#1104);
#982=AXIS2_PLACEMENT_3D('',#1383,#1105,#1106);
#983=AXIS2_PLACEMENT_3D('',#1386,#1107,#1108);
#984=AXIS2_PLACEMENT_3D('',#1390,#1110,#1111);
#985=AXIS2_PLACEMENT_3D('',#1392,#1113,#1114);
#986=AXIS2_PLACEMENT_3D('',#1398,#1118,#1119);
#987=AXIS2_PLACEMENT_3D('',#1400,#1120,#1121);
#988=AXIS2_PLACEMENT_3D('',#1403,#1123,#1124);
#989=AXIS2_PLACEMENT_3D('',#1404,#1125,#1126);
#990=AXIS2_PLACEMENT_3D('',#1406,#1127,#1128);
#991=AXIS2_PLACEMENT_3D('',#1408,#1129,#1130);
#992=AXIS2_PLACEMENT_3D('',#1410,#1132,#1133);
#993=AXIS2_PLACEMENT_3D('',#1412,#1134,#1135);
#994=AXIS2_PLACEMENT_3D('',#1415,#1137,#1138);
#995=AXIS2_PLACEMENT_3D('',#1416,#1139,#1140);
#996=AXIS2_PLACEMENT_3D('',#1419,#1143,#1144);
#997=AXIS2_PLACEMENT_3D('',#1421,#1145,#1146);
#998=AXIS2_PLACEMENT_3D('',#1424,#1148,#1149);
#999=AXIS2_PLACEMENT_3D('',#1425,#1150,#1151);
#1000=AXIS2_PLACEMENT_3D('',#1427,#1152,#1153);
#1001=AXIS2_PLACEMENT_3D('',#1430,#1155,#1156);
#1002=AXIS2_PLACEMENT_3D('',#1431,#1157,#1158);
#1003=AXIS2_PLACEMENT_3D('',#1433,#1159,#1160);
#1004=AXIS2_PLACEMENT_3D('',#1436,#1162,#1163);
#1005=AXIS2_PLACEMENT_3D('',#1437,#1164,#1165);
#1006=AXIS2_PLACEMENT_3D('',#1439,#1166,#1167);
#1007=AXIS2_PLACEMENT_3D('',#1442,#1169,#1170);
#1008=AXIS2_PLACEMENT_3D('',#1443,#1171,#1172);
#1009=AXIS2_PLACEMENT_3D('',#1445,#1173,#1174);
#1010=AXIS2_PLACEMENT_3D('',#1448,#1176,#1177);
#1011=AXIS2_PLACEMENT_3D('',#1449,#1178,#1179);
#1012=AXIS2_PLACEMENT_3D('',#1451,#1180,#1181);
#1013=AXIS2_PLACEMENT_3D('',#1454,#1183,#1184);
#1014=AXIS2_PLACEMENT_3D('',#1455,#1185,#1186);
#1015=AXIS2_PLACEMENT_3D('',#1464,#1191,#1192);
#1016=AXIS2_PLACEMENT_3D('',#1473,#1197,#1198);
#1017=AXIS2_PLACEMENT_3D('',#1479,#1202,#1203);
#1018=AXIS2_PLACEMENT_3D('',#1485,#1207,#1208);
#1019=AXIS2_PLACEMENT_3D('',#1491,#1212,#1213);
#1020=AXIS2_PLACEMENT_3D('',#1497,#1217,#1218);
#1021=AXIS2_PLACEMENT_3D('',#1506,#1223,#1224);
#1022=AXIS2_PLACEMENT_3D('',#1509,#1227,#1228);
#1023=AXIS2_PLACEMENT_3D('',#1512,#1231,#1232);
#1024=AXIS2_PLACEMENT_3D('',#1516,#1234,#1235);
#1025=AXIS2_PLACEMENT_3D('',#1520,#1237,#1238);
#1026=AXIS2_PLACEMENT_3D('',#1524,#1240,#1241);
#1027=AXIS2_PLACEMENT_3D('',#1526,#1242,#1243);
#1028=AXIS2_PLACEMENT_3D('',#1528,#1244,#1245);
#1029=AXIS2_PLACEMENT_3D('',#1532,#1247,#1248);
#1030=AXIS2_PLACEMENT_3D('',#1536,#1250,#1251);
#1031=AXIS2_PLACEMENT_3D('',#1539,#1253,#1254);
#1032=AXIS2_PLACEMENT_3D('',#1540,#1255,#1256);
#1033=AXIS2_PLACEMENT_3D('',#1543,#1257,#1258);
#1034=AXIS2_PLACEMENT_3D('',#1547,#1260,#1261);
#1035=AXIS2_PLACEMENT_3D('',#1549,#1263,#1264);
#1036=AXIS2_PLACEMENT_3D('',#1553,#1266,#1267);
#1037=AXIS2_PLACEMENT_3D('',#1554,#1268,#1269);
#1038=AXIS2_PLACEMENT_3D('',#1556,#1271,#1272);
#1039=AXIS2_PLACEMENT_3D('',#1560,#1275,#1276);
#1040=AXIS2_PLACEMENT_3D('',#1562,#1277,#1278);
#1041=AXIS2_PLACEMENT_3D('',#1564,#1280,#1281);
#1042=AXIS2_PLACEMENT_3D('',#1567,#1282,#1283);
#1043=AXIS2_PLACEMENT_3D('',#1570,#1286,#1287);
#1044=AXIS2_PLACEMENT_3D('',#1574,#1290,#1291);
#1045=AXIS2_PLACEMENT_3D('',#1576,#1292,#1293);
#1046=AXIS2_PLACEMENT_3D('',#1578,#1295,#1296);
#1047=AXIS2_PLACEMENT_3D('',#1582,#1298,#1299);
#1048=AXIS2_PLACEMENT_3D('',#1584,#1301,#1302);
#1049=AXIS2_PLACEMENT_3D('',#1585,#1303,#1304);
#1050=AXIS2_PLACEMENT_3D('',#1586,#1305,#1306);
#1051=AXIS2_PLACEMENT_3D('',#1589,#1307,#1308);
#1052=AXIS2_PLACEMENT_3D('',#1592,#1311,#1312);
#1053=AXIS2_PLACEMENT_3D('',#1596,#1315,#1316);
#1054=AXIS2_PLACEMENT_3D('',#1598,#1317,#1318);
#1055=AXIS2_PLACEMENT_3D('',#1600,#1320,#1321);
#1056=AXIS2_PLACEMENT_3D('',#1603,#1322,#1323);
#1057=AXIS2_PLACEMENT_3D('',#1606,#1326,#1327);
#1058=AXIS2_PLACEMENT_3D('',#1607,#1328,#1329);
#1059=AXIS2_PLACEMENT_3D('',#1608,#1330,#1331);
#1060=AXIS2_PLACEMENT_3D('',#1610,#1332,#1333);
#1061=AXIS2_PLACEMENT_3D('',#1612,#1335,#1336);
#1062=AXIS2_PLACEMENT_3D('',#1614,#1338,#1339);
#1063=AXIS2_PLACEMENT_3D('',#1616,#1341,#1342);
#1064=AXIS2_PLACEMENT_3D('',#1618,#1344,#1345);
#1065=DIRECTION('axis',(0.,0.,1.));
#1066=DIRECTION('refdir',(1.,0.,0.));
#1067=DIRECTION('center_axis',(0.,0.,-1.));
#1068=DIRECTION('ref_axis',(-0.707106781186548,0.707106781186547,0.));
#1069=DIRECTION('center_axis',(8.46545056276681E-16,-3.74700270810989E-16,
1.));
#1070=DIRECTION('ref_axis',(-0.707106781186548,0.707106781186547,0.));
#1071=DIRECTION('',(0.,0.,-1.));
#1072=DIRECTION('center_axis',(-8.46545056276681E-16,3.74700270810989E-16,
-1.));
#1073=DIRECTION('ref_axis',(-0.707106781186548,0.707106781186547,0.));
#1074=DIRECTION('',(0.,0.,1.));
#1075=DIRECTION('center_axis',(-1.,-6.72862439166758E-17,0.));
#1076=DIRECTION('ref_axis',(-6.72862439166758E-17,1.,3.74700270810989E-16));
#1077=DIRECTION('',(-6.72862439166758E-17,1.,3.74700270810989E-16));
#1078=DIRECTION('',(0.,0.,1.));
#1079=DIRECTION('',(6.72862439166758E-17,-1.,-3.74700270810989E-16));
#1080=DIRECTION('center_axis',(0.,0.,-1.));
#1081=DIRECTION('ref_axis',(0.,-1.,0.));
#1082=DIRECTION('center_axis',(-8.46545056276681E-16,3.74700270810989E-16,
-1.));
#1083=DIRECTION('ref_axis',(0.,-1.,0.));
#1084=DIRECTION('',(0.,0.,1.));
#1085=DIRECTION('center_axis',(8.46545056276681E-16,-3.74700270810989E-16,
1.));
#1086=DIRECTION('ref_axis',(0.,-1.,0.));
#1087=DIRECTION('',(0.,0.,-1.));
#1088=DIRECTION('center_axis',(-1.07009448156642E-16,1.,0.));
#1089=DIRECTION('ref_axis',(1.,1.07009448156642E-16,-8.46545056276682E-16));
#1090=DIRECTION('',(-1.,-1.07009448156642E-16,8.46545056276682E-16));
#1091=DIRECTION('',(1.,1.07009448156642E-16,-8.46545056276682E-16));
#1092=DIRECTION('center_axis',(0.,0.,-1.));
#1093=DIRECTION('ref_axis',(-0.653197264742181,-0.757187779440036,0.));
#1094=DIRECTION('center_axis',(8.46545056276681E-16,-3.74700270810989E-16,
1.));
#1095=DIRECTION('ref_axis',(-0.653197264742181,-0.757187779440036,0.));
#1096=DIRECTION('',(0.,0.,-1.));
#1097=DIRECTION('center_axis',(-8.46545056276681E-16,3.74700270810989E-16,
-1.));
#1098=DIRECTION('ref_axis',(-0.653197264742181,-0.757187779440036,0.));
#1099=DIRECTION('center_axis',(0.,0.,-1.));
#1100=DIRECTION('ref_axis',(-1.,0.,0.));
#1101=DIRECTION('center_axis',(8.46545056276681E-16,-3.74700270810989E-16,
1.));
#1102=DIRECTION('ref_axis',(-1.,0.,0.));
#1103=DIRECTION('center_axis',(-8.46545056276681E-16,3.74700270810989E-16,
-1.));
#1104=DIRECTION('ref_axis',(-1.,0.,0.));
#1105=DIRECTION('center_axis',(0.,0.,1.));
#1106=DIRECTION('ref_axis',(0.,-1.,0.));
#1107=DIRECTION('center_axis',(8.46545056276681E-16,-3.74700270810989E-16,
1.));
#1108=DIRECTION('ref_axis',(0.,-1.,0.));
#1109=DIRECTION('',(0.,0.,-1.));
#1110=DIRECTION('center_axis',(-8.46545056276681E-16,3.74700270810989E-16,
-1.));
#1111=DIRECTION('ref_axis',(0.,-1.,0.));
#1112=DIRECTION('',(0.,0.,1.));
#1113=DIRECTION('center_axis',(-1.07009448156642E-16,1.,0.));
#1114=DIRECTION('ref_axis',(1.,1.07009448156642E-16,-8.46545056276682E-16));
#1115=DIRECTION('',(-1.,-1.07009448156642E-16,8.46545056276682E-16));
#1116=DIRECTION('',(0.,0.,-1.));
#1117=DIRECTION('',(1.,1.07009448156642E-16,-8.46545056276682E-16));
#1118=DIRECTION('center_axis',(0.,0.,-1.));
#1119=DIRECTION('ref_axis',(-1.,0.,0.));
#1120=DIRECTION('center_axis',(-8.46545056276681E-16,3.74700270810989E-16,
-1.));
#1121=DIRECTION('ref_axis',(-1.,0.,0.));
#1122=DIRECTION('',(0.,0.,1.));
#1123=DIRECTION('center_axis',(8.46545056276681E-16,-3.74700270810989E-16,
1.));
#1124=DIRECTION('ref_axis',(-1.,0.,0.));
#1125=DIRECTION('center_axis',(0.,0.,-1.));
#1126=DIRECTION('ref_axis',(0.707106781186548,0.707106781186547,0.));
#1127=DIRECTION('center_axis',(8.46545056276681E-16,-3.74700270810989E-16,
1.));
#1128=DIRECTION('ref_axis',(0.707106781186548,0.707106781186547,0.));
#1129=DIRECTION('center_axis',(-8.46545056276681E-16,3.74700270810989E-16,
-1.));
#1130=DIRECTION('ref_axis',(0.707106781186548,0.707106781186547,0.));
#1131=DIRECTION('',(0.,0.,1.));
#1132=DIRECTION('center_axis',(0.,0.,-1.));
#1133=DIRECTION('ref_axis',(0.653197264742181,-0.757187779440037,0.));
#1134=DIRECTION('center_axis',(8.46545056276681E-16,-3.74700270810989E-16,
1.));
#1135=DIRECTION('ref_axis',(0.653197264742181,-0.757187779440037,0.));
#1136=DIRECTION('',(0.,0.,-1.));
#1137=DIRECTION('center_axis',(-8.46545056276681E-16,3.74700270810989E-16,
-1.));
#1138=DIRECTION('ref_axis',(0.653197264742181,-0.757187779440037,0.));
#1139=DIRECTION('center_axis',(1.,-3.17200661840576E-31,0.));
#1140=DIRECTION('ref_axis',(-3.17200661840576E-31,-1.,-3.74700270810989E-16));
#1141=DIRECTION('',(3.17200661840576E-31,1.,3.74700270810989E-16));
#1142=DIRECTION('',(-3.17200661840576E-31,-1.,-3.74700270810989E-16));
#1143=DIRECTION('center_axis',(-0.342020143325669,0.939692620785909,2.77555756156289E-16));
#1144=DIRECTION('ref_axis',(0.939692620785908,0.342020143325669,4.46466804999853E-32));
#1145=DIRECTION('center_axis',(-0.342020143325668,0.939692620785909,6.01712610248453E-16));
#1146=DIRECTION('ref_axis',(0.939692620785908,0.342020143325669,4.46466804999853E-32));
#1147=DIRECTION('',(-0.342020143325669,0.939692620785908,2.77555756156289E-16));
#1148=DIRECTION('center_axis',(-8.75811540203011E-47,-1.,6.48230758110535E-62));
#1149=DIRECTION('ref_axis',(1.,0.,-9.49296595014383E-17));
#1150=DIRECTION('center_axis',(-0.342020143325669,0.939692620785909,2.77555756156289E-16));
#1151=DIRECTION('ref_axis',(0.939692620785908,0.342020143325669,4.46466804999853E-32));
#1152=DIRECTION('center_axis',(-0.342020143325668,0.939692620785909,6.01712610248453E-16));
#1153=DIRECTION('ref_axis',(0.939692620785908,0.342020143325669,4.46466804999853E-32));
#1154=DIRECTION('',(-0.342020143325669,0.939692620785908,2.77555756156289E-16));
#1155=DIRECTION('center_axis',(0.342020143325666,-0.939692620785909,-6.01712610248451E-16));
#1156=DIRECTION('ref_axis',(0.939692620785908,0.342020143325669,4.46466804999853E-32));
#1157=DIRECTION('center_axis',(0.342020143325669,0.939692620785908,2.77555756156289E-16));
#1158=DIRECTION('ref_axis',(0.939692620785908,-0.342020143325669,4.46466804999853E-32));
#1159=DIRECTION('center_axis',(0.342020143325668,0.939692620785909,8.98107775166724E-18));
#1160=DIRECTION('ref_axis',(0.939692620785908,-0.342020143325669,4.46466804999853E-32));
#1161=DIRECTION('',(0.342020143325669,0.939692620785908,2.77555756156289E-16));
#1162=DIRECTION('center_axis',(-0.342020143325666,-0.939692620785909,-8.98107775166936E-18));
#1163=DIRECTION('ref_axis',(0.939692620785908,-0.342020143325669,4.46466804999853E-32));
#1164=DIRECTION('center_axis',(0.342020143325669,0.939692620785908,2.77555756156289E-16));
#1165=DIRECTION('ref_axis',(0.939692620785908,-0.342020143325669,4.46466804999853E-32));
#1166=DIRECTION('center_axis',(0.342020143325668,0.939692620785909,8.98107775166724E-18));
#1167=DIRECTION('ref_axis',(0.939692620785908,-0.342020143325669,4.46466804999853E-32));
#1168=DIRECTION('',(0.342020143325669,0.939692620785908,2.77555756156289E-16));
#1169=DIRECTION('center_axis',(-8.75811540203011E-47,-1.,6.48230758110535E-62));
#1170=DIRECTION('ref_axis',(1.,0.,9.49296595014384E-17));
#1171=DIRECTION('center_axis',(0.,1.,2.77555756156289E-16));
#1172=DIRECTION('ref_axis',(1.,0.,4.46466804999853E-32));
#1173=DIRECTION('center_axis',(1.60856618930451E-16,1.,3.24943324280533E-16));
#1174=DIRECTION('ref_axis',(1.,0.,4.46466804999853E-32));
#1175=DIRECTION('',(0.,1.,2.77555756156289E-16));
#1176=DIRECTION('center_axis',(-2.75079164739796E-31,-1.,-3.24943324280534E-16));
#1177=DIRECTION('ref_axis',(1.,0.,4.46466804999853E-32));
#1178=DIRECTION('center_axis',(0.,1.,2.77555756156289E-16));
#1179=DIRECTION('ref_axis',(1.,0.,4.46466804999853E-32));
#1180=DIRECTION('center_axis',(1.60856618930451E-16,1.,3.24943324280533E-16));
#1181=DIRECTION('ref_axis',(1.,0.,4.46466804999853E-32));
#1182=DIRECTION('',(0.,1.,2.77555756156289E-16));
#1183=DIRECTION('center_axis',(-2.75079164739796E-31,-1.,-3.24943324280534E-16));
#1184=DIRECTION('ref_axis',(1.,0.,4.46466804999853E-32));
#1185=DIRECTION('center_axis',(-0.342020143325666,0.939692620785909,6.01712610248451E-16));
#1186=DIRECTION('ref_axis',(-0.939692620785909,-0.342020143325666,6.67337102219049E-16));
#1187=DIRECTION('',(0.939692620785909,0.342020143325666,-6.67337102219049E-16));
#1188=DIRECTION('',(8.66515531414756E-16,-3.24943324280534E-16,1.));
#1189=DIRECTION('',(-0.939692620785909,-0.342020143325666,6.67337102219049E-16));
#1190=DIRECTION('',(8.66515531414756E-16,-3.24943324280534E-16,1.));
#1191=DIRECTION('center_axis',(1.,7.48294244246072E-33,-8.66515531414756E-16));
#1192=DIRECTION('ref_axis',(3.17200661840576E-31,1.,3.74700270810989E-16));
#1193=DIRECTION('',(-3.17200661840576E-31,-1.,-3.74700270810989E-16));
#1194=DIRECTION('',(8.66515531414756E-16,-3.24943324280534E-16,1.));
#1195=DIRECTION('',(3.17200661840576E-31,1.,3.74700270810989E-16));
#1196=DIRECTION('',(8.66515531414756E-16,-3.24943324280534E-16,1.));
#1197=DIRECTION('center_axis',(0.342020143325668,-0.939692620785909,-6.01712610248453E-16));
#1198=DIRECTION('ref_axis',(0.939692620785909,0.342020143325668,-6.67337102219048E-16));
#1199=DIRECTION('',(-0.939692620785909,-0.342020143325668,6.67337102219048E-16));
#1200=DIRECTION('',(0.939692620785909,0.342020143325668,-6.67337102219048E-16));
#1201=DIRECTION('',(8.66515531414756E-16,-3.24943324280534E-16,1.));
#1202=DIRECTION('center_axis',(-1.60856618930451E-16,-1.,-3.24943324280533E-16));
#1203=DIRECTION('ref_axis',(1.,-1.6085661893045E-16,-8.46545056276682E-16));
#1204=DIRECTION('',(-1.,1.6085661893045E-16,8.46545056276682E-16));
#1205=DIRECTION('',(1.,-1.6085661893045E-16,-8.46545056276682E-16));
#1206=DIRECTION('',(8.66515531414756E-16,-3.24943324280534E-16,1.));
#1207=DIRECTION('center_axis',(-0.342020143325668,-0.939692620785909,-8.98107775166724E-18));
#1208=DIRECTION('ref_axis',(0.939692620785909,-0.342020143325668,-9.2364718287293E-16));
#1209=DIRECTION('',(-0.939692620785909,0.342020143325668,9.2364718287293E-16));
#1210=DIRECTION('',(0.939692620785909,-0.342020143325668,-9.2364718287293E-16));
#1211=DIRECTION('',(8.66515531414756E-16,-3.24943324280534E-16,1.));
#1212=DIRECTION('center_axis',(-1.,-7.48294244246072E-33,8.66515531414756E-16));
#1213=DIRECTION('ref_axis',(-3.17200661840576E-31,-1.,-3.74700270810989E-16));
#1214=DIRECTION('',(3.17200661840576E-31,1.,3.74700270810989E-16));
#1215=DIRECTION('',(-3.17200661840576E-31,-1.,-3.74700270810989E-16));
#1216=DIRECTION('',(8.66515531414756E-16,-3.24943324280534E-16,1.));
#1217=DIRECTION('center_axis',(0.342020143325666,0.939692620785909,8.98107775166936E-18));
#1218=DIRECTION('ref_axis',(-0.939692620785909,0.342020143325666,9.2364718287293E-16));
#1219=DIRECTION('',(0.939692620785909,-0.342020143325666,-9.2364718287293E-16));
#1220=DIRECTION('',(8.66515531414756E-16,-3.24943324280534E-16,1.));
#1221=DIRECTION('',(-0.939692620785909,0.342020143325666,9.2364718287293E-16));
#1222=DIRECTION('',(8.66515531414756E-16,-3.24943324280534E-16,1.));
#1223=DIRECTION('center_axis',(2.75079164739796E-31,1.,3.24943324280534E-16));
#1224=DIRECTION('ref_axis',(-1.,0.,8.46545056276682E-16));
#1225=DIRECTION('',(1.,0.,-8.46545056276682E-16));
#1226=DIRECTION('',(-1.,0.,8.46545056276682E-16));
#1227=DIRECTION('center_axis',(8.66515531414756E-16,-3.24943324280534E-16,
1.));
#1228=DIRECTION('ref_axis',(1.,0.,-8.66515531414756E-16));
#1229=DIRECTION('',(-1.,6.72448600838833E-64,8.46545056276682E-16));
#1230=DIRECTION('',(-1.,-1.83031984217005E-48,8.46545056276682E-16));
#1231=DIRECTION('center_axis',(-8.46545056276681E-16,3.74700270810989E-16,
-1.));
#1232=DIRECTION('ref_axis',(1.,-8.75811540203011E-47,-8.46545056276682E-16));
#1233=DIRECTION('',(1.,-8.75811540203011E-47,-8.46545056276682E-16));
#1234=DIRECTION('center_axis',(8.46545056276681E-16,-3.74700270810989E-16,
1.));
#1235=DIRECTION('ref_axis',(-0.707106781186546,-0.707106781186549,1.57009245868378E-15));
#1236=DIRECTION('',(3.17200661840576E-31,1.,3.74700270810989E-16));
#1237=DIRECTION('center_axis',(-8.46545056276681E-16,3.74700270810989E-16,
-1.));
#1238=DIRECTION('ref_axis',(0.707106781186546,0.707106781186549,-1.57009245868378E-15));
#1239=DIRECTION('',(-1.,8.75811540203011E-47,8.46545056276682E-16));
#1240=DIRECTION('center_axis',(8.46545056276681E-16,-3.74700270810989E-16,
1.));
#1241=DIRECTION('ref_axis',(-0.612372435695793,-0.790569415042096,1.40433338743068E-15));
#1242=DIRECTION('center_axis',(-8.46545056276681E-16,3.74700270810989E-16,
-1.));
#1243=DIRECTION('ref_axis',(1.,-8.75811540203011E-47,-8.46545056276681E-16));
#1244=DIRECTION('center_axis',(8.46545056276681E-16,-3.74700270810989E-16,
1.));
#1245=DIRECTION('ref_axis',(0.612372435695794,-0.790569415042095,-1.40433338743068E-15));
#1246=DIRECTION('',(-1.,8.75811540203011E-47,8.46545056276682E-16));
#1247=DIRECTION('center_axis',(-8.46545056276681E-16,3.74700270810989E-16,
-1.));
#1248=DIRECTION('ref_axis',(-0.707106781186546,0.707106781186549,1.57009245868378E-15));
#1249=DIRECTION('',(-3.17200661840576E-31,-1.,-3.74700270810989E-16));
#1250=DIRECTION('center_axis',(8.46545056276681E-16,-3.74700270810989E-16,
1.));
#1251=DIRECTION('ref_axis',(0.707106781186546,-0.707106781186549,0.));
#1252=DIRECTION('',(1.,-8.75811540203011E-47,-8.46545056276682E-16));
#1253=DIRECTION('center_axis',(8.46545056276681E-16,-3.74700270810989E-16,
1.));
#1254=DIRECTION('ref_axis',(1.,-8.75811540203011E-47,-8.46545056276682E-16));
#1255=DIRECTION('center_axis',(-7.40148683083437E-16,0.,-1.));
#1256=DIRECTION('ref_axis',(0.966521443666726,0.256585850998037,0.));
#1257=DIRECTION('center_axis',(8.46545056276681E-16,-3.74700270810989E-16,
1.));
#1258=DIRECTION('ref_axis',(0.966521443666726,0.256585850998037,0.));
#1259=DIRECTION('',(7.40148683083437E-16,0.,1.));
#1260=DIRECTION('center_axis',(-8.46545056276681E-16,3.74700270810989E-16,
-1.));
#1261=DIRECTION('ref_axis',(0.966521443666726,0.256585850998037,0.));
#1262=DIRECTION('',(-7.40148683083437E-16,0.,-1.));
#1263=DIRECTION('center_axis',(-8.46545056276681E-16,3.74700270810989E-16,
-1.));
#1264=DIRECTION('ref_axis',(1.,-8.75811540203011E-47,-8.46545056276682E-16));
#1265=DIRECTION('',(1.,-8.75811540203011E-47,-8.46545056276682E-16));
#1266=DIRECTION('center_axis',(-8.46545056276681E-16,3.74700270810989E-16,
-1.));
#1267=DIRECTION('ref_axis',(-0.966521443666726,0.256585850998037,0.));
#1268=DIRECTION('center_axis',(-8.46545056276681E-16,3.74700270810989E-16,
-1.));
#1269=DIRECTION('ref_axis',(1.,-8.75811540203011E-47,-8.46545056276681E-16));
#1270=DIRECTION('',(1.,-8.75811540203011E-47,-8.46545056276682E-16));
#1271=DIRECTION('center_axis',(8.75811540203011E-47,1.,-6.48230758110535E-62));
#1272=DIRECTION('ref_axis',(1.,-8.75811540203011E-47,-8.46545056276682E-16));
#1273=DIRECTION('',(1.,-8.75811540203011E-47,-8.46545056276682E-16));
#1274=DIRECTION('',(-7.40148683083437E-16,0.,-1.));
#1275=DIRECTION('center_axis',(-7.40148683083437E-16,0.,-1.));
#1276=DIRECTION('ref_axis',(-0.707106781186546,-0.707106781186549,1.57009245868378E-15));
#1277=DIRECTION('center_axis',(-8.46545056276681E-16,3.74700270810989E-16,
-1.));
#1278=DIRECTION('ref_axis',(-0.707106781186546,-0.707106781186549,1.57009245868378E-15));
#1279=DIRECTION('',(7.40148683083437E-16,0.,1.));
#1280=DIRECTION('center_axis',(-7.40148683083437E-16,0.,-1.));
#1281=DIRECTION('ref_axis',(0.707106781186546,0.707106781186549,-1.57009245868378E-15));
#1282=DIRECTION('center_axis',(8.46545056276681E-16,-3.74700270810989E-16,
1.));
#1283=DIRECTION('ref_axis',(0.707106781186546,0.707106781186549,-1.57009245868378E-15));
#1284=DIRECTION('',(7.40148683083437E-16,0.,1.));
#1285=DIRECTION('',(-7.40148683083437E-16,0.,-1.));
#1286=DIRECTION('center_axis',(8.75811540203011E-47,1.,-6.48230758110535E-62));
#1287=DIRECTION('ref_axis',(1.,-8.75811540203011E-47,-8.46545056276682E-16));
#1288=DIRECTION('',(1.,-8.75811540203011E-47,-8.46545056276682E-16));
#1289=DIRECTION('',(-7.40148683083437E-16,0.,-1.));
#1290=DIRECTION('center_axis',(-7.40148683083437E-16,0.,-1.));
#1291=DIRECTION('ref_axis',(-0.612372435695793,-0.790569415042096,1.40433338743068E-15));
#1292=DIRECTION('center_axis',(-8.46545056276681E-16,3.74700270810989E-16,
-1.));
#1293=DIRECTION('ref_axis',(-0.612372435695793,-0.790569415042096,1.40433338743068E-15));
#1294=DIRECTION('',(7.40148683083437E-16,0.,1.));
#1295=DIRECTION('center_axis',(-7.40148683083437E-16,0.,-1.));
#1296=DIRECTION('ref_axis',(0.612372435695794,-0.790569415042095,-1.40433338743068E-15));
#1297=DIRECTION('',(-7.40148683083437E-16,0.,-1.));
#1298=DIRECTION('center_axis',(-8.46545056276681E-16,3.74700270810989E-16,
-1.));
#1299=DIRECTION('ref_axis',(0.612372435695794,-0.790569415042095,-1.40433338743068E-15));
#1300=DIRECTION('',(7.40148683083437E-16,0.,1.));
#1301=DIRECTION('center_axis',(-7.40148683083437E-16,0.,-1.));
#1302=DIRECTION('ref_axis',(1.,-8.75811540203011E-47,-7.40148683083437E-16));
#1303=DIRECTION('center_axis',(-8.46545056276681E-16,3.74700270810989E-16,
-1.));
#1304=DIRECTION('ref_axis',(1.,-8.75811540203011E-47,-8.46545056276681E-16));
#1305=DIRECTION('center_axis',(-7.40148683083437E-16,0.,-1.));
#1306=DIRECTION('ref_axis',(-0.707106781186546,0.707106781186549,1.57009245868378E-15));
#1307=DIRECTION('center_axis',(8.46545056276681E-16,-3.74700270810989E-16,
1.));
#1308=DIRECTION('ref_axis',(-0.707106781186546,0.707106781186549,1.57009245868378E-15));
#1309=DIRECTION('',(7.40148683083437E-16,0.,1.));
#1310=DIRECTION('',(-7.40148683083437E-16,0.,-1.));
#1311=DIRECTION('center_axis',(-1.,3.98667498488158E-32,7.40148683083437E-16));
#1312=DIRECTION('ref_axis',(3.17200661840576E-31,1.,3.74700270810989E-16));
#1313=DIRECTION('',(3.17200661840576E-31,1.,3.74700270810989E-16));
#1314=DIRECTION('',(-7.40148683083437E-16,0.,-1.));
#1315=DIRECTION('center_axis',(-7.40148683083437E-16,0.,-1.));
#1316=DIRECTION('ref_axis',(0.707106781186546,-0.707106781186549,0.));
#1317=DIRECTION('center_axis',(-8.46545056276681E-16,3.74700270810989E-16,
-1.));
#1318=DIRECTION('ref_axis',(0.707106781186546,-0.707106781186549,0.));
#1319=DIRECTION('',(7.40148683083437E-16,0.,1.));
#1320=DIRECTION('center_axis',(-7.40148683083437E-16,8.70596507347276E-78,
-1.));
#1321=DIRECTION('ref_axis',(-0.966521443666726,0.256585850998037,0.));
#1322=DIRECTION('center_axis',(8.46545056276681E-16,-3.74700270810989E-16,
1.));
#1323=DIRECTION('ref_axis',(-0.966521443666726,0.256585850998037,0.));
#1324=DIRECTION('',(7.40148683083437E-16,0.,1.));
#1325=DIRECTION('',(-7.40148683083437E-16,8.70596507347276E-78,-1.));
#1326=DIRECTION('center_axis',(-7.40148683083437E-16,0.,-1.));
#1327=DIRECTION('ref_axis',(1.,-8.75811540203011E-47,-7.40148683083437E-16));
#1328=DIRECTION('center_axis',(-8.46545056276681E-16,3.74700270810989E-16,
-1.));
#1329=DIRECTION('ref_axis',(1.,-8.75811540203011E-47,-8.46545056276681E-16));
#1330=DIRECTION('center_axis',(-7.40148683083437E-16,0.,-1.));
#1331=DIRECTION('ref_axis',(1.,-8.75811540203011E-47,-7.40148683083437E-16));
#1332=DIRECTION('center_axis',(8.46545056276681E-16,-3.74700270810989E-16,
1.));
#1333=DIRECTION('ref_axis',(1.,-8.75811540203011E-47,-8.46545056276682E-16));
#1334=DIRECTION('',(7.40148683083437E-16,0.,1.));
#1335=DIRECTION('center_axis',(1.,-3.98667498488158E-32,-7.40148683083437E-16));
#1336=DIRECTION('ref_axis',(-3.17200661840576E-31,-1.,-3.74700270810989E-16));
#1337=DIRECTION('',(-3.17200661840576E-31,-1.,-3.74700270810989E-16));
#1338=DIRECTION('center_axis',(8.75811540203011E-47,1.,-6.48230758110535E-62));
#1339=DIRECTION('ref_axis',(1.,-8.75811540203011E-47,-8.46545056276682E-16));
#1340=DIRECTION('',(1.,-8.75811540203011E-47,-8.46545056276682E-16));
#1341=DIRECTION('center_axis',(8.75811540203011E-47,1.,-6.48230758110535E-62));
#1342=DIRECTION('ref_axis',(1.,-8.75811540203011E-47,-8.46545056276682E-16));
#1343=DIRECTION('',(1.,-8.75811540203011E-47,-8.46545056276682E-16));
#1344=DIRECTION('center_axis',(-8.46545056276681E-16,3.74700270810989E-16,
-1.));
#1345=DIRECTION('ref_axis',(1.,-8.75811540203011E-47,-8.46545056276682E-16));
#1346=CARTESIAN_POINT('',(0.,0.,0.));
#1347=CARTESIAN_POINT('Origin',(11.,21.,-13.2));
#1348=CARTESIAN_POINT('',(11.,26.,-13.2));
#1349=CARTESIAN_POINT('',(5.99999999999999,21.,-13.2));
#1350=CARTESIAN_POINT('Origin',(11.,21.,-13.2));
#1351=CARTESIAN_POINT('',(5.99999999999999,21.,-14.7));
#1352=CARTESIAN_POINT('',(5.99999999999999,21.,-13.2));
#1353=CARTESIAN_POINT('',(11.,26.,-14.7));
#1354=CARTESIAN_POINT('Origin',(11.,21.,-14.7));
#1355=CARTESIAN_POINT('',(11.,26.,-13.2));
#1356=CARTESIAN_POINT('Origin',(5.99999999999999,8.89193829359396,-13.2));
#1357=CARTESIAN_POINT('',(5.99999999999999,14.4776730303449,-13.2));
#1358=CARTESIAN_POINT('',(5.99999999999999,13.320969146797,-13.2));
#1359=CARTESIAN_POINT('',(5.99999999999999,14.4776730303449,-14.7));
#1360=CARTESIAN_POINT('',(5.99999999999999,14.4776730303449,-13.2));
#1361=CARTESIAN_POINT('',(5.99999999999999,13.320969146797,-14.7));
#1362=CARTESIAN_POINT('Origin',(32.3454541352002,21.,-13.2));
#1363=CARTESIAN_POINT('',(32.3454541352002,26.,-14.7));
#1364=CARTESIAN_POINT('',(34.5018177442135,16.4888919337126,-14.7));
#1365=CARTESIAN_POINT('Origin',(32.3454541352002,21.,-14.7));
#1366=CARTESIAN_POINT('',(34.5018177442135,16.4888919337126,-13.2));
#1367=CARTESIAN_POINT('',(34.5018177442135,16.4888919337126,-13.2));
#1368=CARTESIAN_POINT('',(32.3454541352002,26.,-13.2));
#1369=CARTESIAN_POINT('Origin',(32.3454541352002,21.,-13.2));
#1370=CARTESIAN_POINT('',(32.3454541352002,26.,-13.2));
#1371=CARTESIAN_POINT('Origin',(5.99999999999999,26.,-13.2));
#1372=CARTESIAN_POINT('',(2.99999999999999,26.,-14.7));
#1373=CARTESIAN_POINT('',(2.99999999999999,26.,-13.2));
#1374=CARTESIAN_POINT('Origin',(11.,14.4776730303449,-13.2));
#1375=CARTESIAN_POINT('',(11.7333333333333,9.53174316608047,-13.2));
#1376=CARTESIAN_POINT('Origin',(11.,14.4776730303449,-13.2));
#1377=CARTESIAN_POINT('',(11.7333333333333,9.53174316608047,-14.7));
#1378=CARTESIAN_POINT('',(11.7333333333333,9.53174316608048,-13.2));
#1379=CARTESIAN_POINT('Origin',(11.,14.4776730303449,-14.7));
#1380=CARTESIAN_POINT('Origin',(-1.04111164134224E-14,88.6666209943105,
-13.2));
#1381=CARTESIAN_POINT('Origin',(-1.04111164134224E-14,88.6666209943105,
-14.7));
#1382=CARTESIAN_POINT('Origin',(-1.04111164134224E-14,88.6666209943105,
-13.2));
#1383=CARTESIAN_POINT('Origin',(-32.3454541352002,21.,-13.2));
#1384=CARTESIAN_POINT('',(-34.5018177442135,16.4888919337126,-13.2));
#1385=CARTESIAN_POINT('',(-32.3454541352002,26.,-13.2));
#1386=CARTESIAN_POINT('Origin',(-32.3454541352002,21.,-13.2));
#1387=CARTESIAN_POINT('',(-34.5018177442135,16.4888919337126,-14.7));
#1388=CARTESIAN_POINT('',(-34.5018177442135,16.4888919337126,-13.2));
#1389=CARTESIAN_POINT('',(-32.3454541352002,26.,-14.7));
#1390=CARTESIAN_POINT('Origin',(-32.3454541352002,21.,-14.7));
#1391=CARTESIAN_POINT('',(-32.3454541352002,26.,-13.2));
#1392=CARTESIAN_POINT('Origin',(-41.5,26.,-13.1999999999999));
#1393=CARTESIAN_POINT('',(-11.,26.,-14.7));
#1394=CARTESIAN_POINT('',(-20.75,26.,-14.7));
#1395=CARTESIAN_POINT('',(-11.,26.,-13.2));
#1396=CARTESIAN_POINT('',(-11.,26.,-13.2));
#1397=CARTESIAN_POINT('',(-20.75,26.,-13.2));
#1398=CARTESIAN_POINT('Origin',(-1.04111164134224E-14,88.6666209943105,
-13.2));
#1399=CARTESIAN_POINT('',(-11.7333333333333,9.53174316608047,-13.2));
#1400=CARTESIAN_POINT('Origin',(-1.04111164134224E-14,88.6666209943105,
-13.2));
#1401=CARTESIAN_POINT('',(-11.7333333333333,9.53174316608047,-14.7));
#1402=CARTESIAN_POINT('',(-11.7333333333333,9.53174316608048,-13.2));
#1403=CARTESIAN_POINT('Origin',(-1.04111164134224E-14,88.6666209943105,
-14.7));
#1404=CARTESIAN_POINT('Origin',(-11.,21.,-13.2));
#1405=CARTESIAN_POINT('',(-6.00000000000001,21.,-13.2));
#1406=CARTESIAN_POINT('Origin',(-11.,21.,-13.2));
#1407=CARTESIAN_POINT('',(-6.00000000000001,21.,-14.7));
#1408=CARTESIAN_POINT('Origin',(-11.,21.,-14.7));
#1409=CARTESIAN_POINT('',(-6.00000000000001,21.,-13.2));
#1410=CARTESIAN_POINT('Origin',(-11.,14.4776730303449,-13.2));
#1411=CARTESIAN_POINT('',(-6.00000000000001,14.4776730303449,-13.2));
#1412=CARTESIAN_POINT('Origin',(-11.,14.4776730303449,-13.2));
#1413=CARTESIAN_POINT('',(-6.00000000000001,14.4776730303449,-14.7));
#1414=CARTESIAN_POINT('',(-6.00000000000001,14.4776730303449,-13.2));
#1415=CARTESIAN_POINT('Origin',(-11.,14.4776730303449,-14.7));
#1416=CARTESIAN_POINT('Origin',(-6.00000000000001,26.,-13.2));
#1417=CARTESIAN_POINT('',(-6.00000000000001,21.875,-14.7));
#1418=CARTESIAN_POINT('',(-6.00000000000001,21.875,-13.2));
#1419=CARTESIAN_POINT('Origin',(64.2410731201559,17.5894836038554,-6.7));
#1420=CARTESIAN_POINT('',(63.0664573441735,17.1619584246983,-6.7));
#1421=CARTESIAN_POINT('Origin',(64.2410731201559,17.5894836038554,-6.7));
#1422=CARTESIAN_POINT('',(62.0334946871537,20.,-6.7));
#1423=CARTESIAN_POINT('',(63.0664573441735,17.1619584246983,-6.7));
#1424=CARTESIAN_POINT('Origin',(63.3637169027486,20.,-6.7));
#1425=CARTESIAN_POINT('Origin',(29.4724461510773,4.93473830080567,-6.69999999999997));
#1426=CARTESIAN_POINT('',(28.2978303750949,4.50721312164858,-6.69999999999997));
#1427=CARTESIAN_POINT('Origin',(29.4724461510773,4.93473830080569,-6.69999999999997));
#1428=CARTESIAN_POINT('',(26.9297498017923,8.26598360479222,-6.69999999999997));
#1429=CARTESIAN_POINT('',(28.2978303750949,4.50721312164858,-6.69999999999997));
#1430=CARTESIAN_POINT('Origin',(28.1043655777747,8.69350878394924,-6.69999999999997));
#1431=CARTESIAN_POINT('Origin',(-29.4724461510773,4.93473830080568,-6.7));
#1432=CARTESIAN_POINT('',(-30.6470619270597,5.36226347996277,-6.7));
#1433=CARTESIAN_POINT('Origin',(-29.4724461510773,4.93473830080567,-6.7));
#1434=CARTESIAN_POINT('',(-29.278981353757,9.1210339631064,-6.7));
#1435=CARTESIAN_POINT('',(-30.6470619270597,5.36226347996276,-6.7));
#1436=CARTESIAN_POINT('Origin',(-28.1043655777746,8.69350878394932,-6.7));
#1437=CARTESIAN_POINT('Origin',(-64.2410731201559,17.5894836038554,-6.69999999999997));
#1438=CARTESIAN_POINT('',(-65.4156888961383,18.0170087830125,-6.69999999999997));
#1439=CARTESIAN_POINT('Origin',(-64.2410731201559,17.5894836038554,-6.69999999999997));
#1440=CARTESIAN_POINT('',(-64.6939391183435,20.,-6.69999999999996));
#1441=CARTESIAN_POINT('',(-65.4156888961383,18.0170087830125,-6.69999999999997));
#1442=CARTESIAN_POINT('Origin',(-63.3637169027486,20.,-6.69999999999996));
#1443=CARTESIAN_POINT('Origin',(18.5,3.,-6.7));
#1444=CARTESIAN_POINT('',(17.25,3.,-6.7));
#1445=CARTESIAN_POINT('Origin',(18.5,3.00000000000001,-6.7));
#1446=CARTESIAN_POINT('',(17.25,7.,-6.7));
#1447=CARTESIAN_POINT('',(17.25,3.,-6.7));
#1448=CARTESIAN_POINT('Origin',(18.5,7.00000000000001,-6.7));
#1449=CARTESIAN_POINT('Origin',(-18.5,3.00000000000001,-6.69999999999997));
#1450=CARTESIAN_POINT('',(-19.75,3.00000000000001,-6.69999999999997));
#1451=CARTESIAN_POINT('Origin',(-18.5,3.00000000000001,-6.69999999999997));
#1452=CARTESIAN_POINT('',(-19.75,7.00000000000001,-6.69999999999996));
#1453=CARTESIAN_POINT('',(-19.75,3.00000000000001,-6.69999999999997));
#1454=CARTESIAN_POINT('Origin',(-18.5,7.00000000000001,-6.69999999999996));
#1455=CARTESIAN_POINT('Origin',(59.1686948871362,20.,-13.2));
#1456=CARTESIAN_POINT('',(23.4514884342258,7.00000000000001,-13.2));
#1457=CARTESIAN_POINT('',(59.1686948871362,20.,-13.2));
#1458=CARTESIAN_POINT('',(32.6834906536802,10.3601740105609,-13.2));
#1459=CARTESIAN_POINT('',(23.4514884342259,7.00000000000001,-2.95));
#1460=CARTESIAN_POINT('',(23.4514884342258,7.00000000000001,-13.2));
#1461=CARTESIAN_POINT('',(59.1686948871362,20.,-2.95000000000003));
#1462=CARTESIAN_POINT('',(23.4514884342259,7.00000000000001,-2.95));
#1463=CARTESIAN_POINT('',(59.1686948871362,20.,-13.2));
#1464=CARTESIAN_POINT('Origin',(68.0000010132789,18.9576214697052,-13.2));
#1465=CARTESIAN_POINT('',(68.0000010132789,20.,-13.2));
#1466=CARTESIAN_POINT('',(68.0000010132789,18.9576214697052,-13.2));
#1467=CARTESIAN_POINT('',(68.0000010132789,18.3538107348526,-13.2));
#1468=CARTESIAN_POINT('',(68.000001013279,20.,-2.95000000000004));
#1469=CARTESIAN_POINT('',(68.0000010132789,20.,-13.2));
#1470=CARTESIAN_POINT('',(68.000001013279,18.9576214697052,-2.95000000000004));
#1471=CARTESIAN_POINT('',(68.000001013279,18.9576214697052,-2.95000000000004));
#1472=CARTESIAN_POINT('',(68.0000010132789,18.9576214697052,-13.2));
#1473=CARTESIAN_POINT('Origin',(24.1567963570597,3.00000000000001,-13.2));
#1474=CARTESIAN_POINT('',(24.1567963570597,3.00000000000001,-13.2));
#1475=CARTESIAN_POINT('',(15.8615816752933,-0.0192112310109493,-13.2));
#1476=CARTESIAN_POINT('',(24.1567963570597,3.00000000000001,-2.95000000000001));
#1477=CARTESIAN_POINT('',(24.1567963570597,3.00000000000001,-2.95000000000001));
#1478=CARTESIAN_POINT('',(24.1567963570597,3.00000000000001,-13.2));
#1479=CARTESIAN_POINT('Origin',(-24.1567963570597,3.00000000000001,-13.2));
#1480=CARTESIAN_POINT('',(-24.1567963570597,3.00000000000001,-13.2));
#1481=CARTESIAN_POINT('',(-12.0783981785299,3.00000000000001,-13.2));
#1482=CARTESIAN_POINT('',(-24.1567963570597,3.00000000000001,-2.94999999999996));
#1483=CARTESIAN_POINT('',(-2.29261054585093E-15,3.00000000000001,-2.94999999999998));
#1484=CARTESIAN_POINT('',(-24.1567963570597,3.00000000000001,-13.2));
#1485=CARTESIAN_POINT('Origin',(-68.000001013279,18.9576214697052,-13.1999999999999));
#1486=CARTESIAN_POINT('',(-68.000001013279,18.9576214697052,-13.1999999999999));
#1487=CARTESIAN_POINT('',(-37.7831840034029,7.95959950384163,-13.2));
#1488=CARTESIAN_POINT('',(-68.000001013279,18.9576214697052,-2.94999999999992));
#1489=CARTESIAN_POINT('',(-24.1567963570597,3.00000000000001,-2.94999999999996));
#1490=CARTESIAN_POINT('',(-68.000001013279,18.9576214697052,-13.1999999999999));
#1491=CARTESIAN_POINT('Origin',(-68.000001013279,20.,-13.1999999999999));
#1492=CARTESIAN_POINT('',(-68.000001013279,20.,-13.1999999999999));
#1493=CARTESIAN_POINT('',(-68.000001013279,18.875,-13.1999999999999));
#1494=CARTESIAN_POINT('',(-68.000001013279,20.,-2.94999999999992));
#1495=CARTESIAN_POINT('',(-68.000001013279,18.9576214697052,-2.94999999999992));
#1496=CARTESIAN_POINT('',(-68.000001013279,20.,-13.1999999999999));
#1497=CARTESIAN_POINT('Origin',(-23.4514884342259,7.00000000000001,-13.2));
#1498=CARTESIAN_POINT('',(-59.1686948871362,20.,-13.1999999999999));
#1499=CARTESIAN_POINT('',(-23.4514884342259,7.00000000000001,-13.2));
#1500=CARTESIAN_POINT('',(-14.824887427225,3.86017401056088,-13.2));
#1501=CARTESIAN_POINT('',(-59.1686948871362,20.,-2.94999999999993));
#1502=CARTESIAN_POINT('',(-59.1686948871362,20.,-13.1999999999999));
#1503=CARTESIAN_POINT('',(-23.4514884342259,7.00000000000001,-2.94999999999996));
#1504=CARTESIAN_POINT('',(-23.4514884342259,7.00000000000001,-2.94999999999996));
#1505=CARTESIAN_POINT('',(-23.4514884342259,7.00000000000001,-13.2));
#1506=CARTESIAN_POINT('Origin',(23.4514884342258,7.00000000000001,-13.2));
#1507=CARTESIAN_POINT('',(11.7257442171129,7.00000000000001,-13.2));
#1508=CARTESIAN_POINT('',(-2.29261054585093E-15,7.00000000000001,-2.94999999999998));
#1509=CARTESIAN_POINT('Origin',(-4.44089209850063E-15,11.5,-2.94999999999998));
#1510=CARTESIAN_POINT('',(-49.5,20.,-2.94999999999994));
#1511=CARTESIAN_POINT('',(69.6867993238318,20.,-2.95000000000004));
#1512=CARTESIAN_POINT('Origin',(-1.11743947428522E-14,17.75,-13.2));
#1513=CARTESIAN_POINT('',(49.5,20.,-13.2));
#1514=CARTESIAN_POINT('',(-76.852130744697,20.,-13.1999999999999));
#1515=CARTESIAN_POINT('',(47.5,22.,-13.2));
#1516=CARTESIAN_POINT('Origin',(49.5,22.,-13.2));
#1517=CARTESIAN_POINT('',(47.5,30.,-13.2));
#1518=CARTESIAN_POINT('',(47.5,-12.2607821308152,-13.2));
#1519=CARTESIAN_POINT('',(45.5,32.,-13.2));
#1520=CARTESIAN_POINT('Origin',(45.5,30.,-13.2));
#1521=CARTESIAN_POINT('',(7.74596669241482,32.,-13.2));
#1522=CARTESIAN_POINT('',(47.5,32.,-13.2));
#1523=CARTESIAN_POINT('',(5.80947501931111,33.5,-13.2));
#1524=CARTESIAN_POINT('Origin',(7.74596669241482,34.,-13.2));
#1525=CARTESIAN_POINT('',(-5.80947501931114,33.5,-13.2));
#1526=CARTESIAN_POINT('Origin',(-1.31338296214879E-14,32.,-13.2));
#1527=CARTESIAN_POINT('',(-7.74596669241485,32.,-13.2));
#1528=CARTESIAN_POINT('Origin',(-7.74596669241485,34.,-13.2));
#1529=CARTESIAN_POINT('',(-45.5,32.,-13.1999999999999));
#1530=CARTESIAN_POINT('',(47.5,32.,-13.2));
#1531=CARTESIAN_POINT('',(-47.5,30.,-13.1999999999999));
#1532=CARTESIAN_POINT('Origin',(-45.5,30.,-13.1999999999999));
#1533=CARTESIAN_POINT('',(-47.5,22.,-13.1999999999999));
#1534=CARTESIAN_POINT('',(-47.5,32.,-13.1999999999999));
#1535=CARTESIAN_POINT('',(-49.5,20.,-13.1999999999999));
#1536=CARTESIAN_POINT('Origin',(-49.5,22.,-13.1999999999999));
#1537=CARTESIAN_POINT('',(-76.852130744697,20.,-13.1999999999999));
#1538=CARTESIAN_POINT('',(-2.75000000000001,32.,-13.2));
#1539=CARTESIAN_POINT('Origin',(-1.31338296214879E-14,32.,-13.2));
#1540=CARTESIAN_POINT('Origin',(69.6867993238318,18.,-13.2));
#1541=CARTESIAN_POINT('',(70.6787822323561,16.2633451957296,-14.7));
#1542=CARTESIAN_POINT('',(69.6867993238318,20.,-14.7));
#1543=CARTESIAN_POINT('Origin',(69.6867993238318,18.,-14.7));
#1544=CARTESIAN_POINT('',(69.6867993238318,20.,-13.2));
#1545=CARTESIAN_POINT('',(69.6867993238318,20.,-13.2));
#1546=CARTESIAN_POINT('',(70.6787822323561,16.2633451957296,-13.2));
#1547=CARTESIAN_POINT('Origin',(69.6867993238318,18.,-13.2));
#1548=CARTESIAN_POINT('',(70.6787822323561,16.2633451957296,-13.2));
#1549=CARTESIAN_POINT('Origin',(-1.11743947428522E-14,17.75,-13.2));
#1550=CARTESIAN_POINT('',(-69.6867993238318,20.,-13.1999999999999));
#1551=CARTESIAN_POINT('',(-76.852130744697,20.,-13.1999999999999));
#1552=CARTESIAN_POINT('',(-70.6787822323561,16.2633451957296,-13.1999999999999));
#1553=CARTESIAN_POINT('Origin',(-69.6867993238318,18.,-13.1999999999999));
#1554=CARTESIAN_POINT('Origin',(-1.11743947428521E-14,140.,-13.1999999999999));
#1555=CARTESIAN_POINT('',(-76.852130744697,20.,-13.1999999999999));
#1556=CARTESIAN_POINT('Origin',(47.5,20.,-13.2));
#1557=CARTESIAN_POINT('',(49.5,20.,-14.7));
#1558=CARTESIAN_POINT('',(-76.852130744697,20.,-14.6999999999999));
#1559=CARTESIAN_POINT('',(49.5,20.,-13.2));
#1560=CARTESIAN_POINT('Origin',(49.5,22.,-13.2));
#1561=CARTESIAN_POINT('',(47.5,22.,-14.7));
#1562=CARTESIAN_POINT('Origin',(49.5,22.,-14.7));
#1563=CARTESIAN_POINT('',(47.5,22.,-13.2));
#1564=CARTESIAN_POINT('Origin',(45.5,30.,-13.2));
#1565=CARTESIAN_POINT('',(47.5,30.,-14.7));
#1566=CARTESIAN_POINT('',(45.5,32.,-14.7));
#1567=CARTESIAN_POINT('Origin',(45.5,30.,-14.7));
#1568=CARTESIAN_POINT('',(45.5,32.,-13.2));
#1569=CARTESIAN_POINT('',(47.5,30.,-13.2));
#1570=CARTESIAN_POINT('Origin',(5.99999999999999,32.,-13.2));
#1571=CARTESIAN_POINT('',(7.74596669241482,32.,-14.7));
#1572=CARTESIAN_POINT('',(47.5,32.,-14.7));
#1573=CARTESIAN_POINT('',(7.74596669241482,32.,-13.2));
#1574=CARTESIAN_POINT('Origin',(7.74596669241482,34.,-13.2));
#1575=CARTESIAN_POINT('',(5.80947501931111,33.5,-14.7));
#1576=CARTESIAN_POINT('Origin',(7.74596669241482,34.,-14.7));
#1577=CARTESIAN_POINT('',(5.80947501931111,33.5,-13.2));
#1578=CARTESIAN_POINT('Origin',(-7.74596669241485,34.,-13.2));
#1579=CARTESIAN_POINT('',(-5.80947501931114,33.5,-14.7));
#1580=CARTESIAN_POINT('',(-5.80947501931114,33.5,-13.2));
#1581=CARTESIAN_POINT('',(-7.74596669241485,32.,-14.7));
#1582=CARTESIAN_POINT('Origin',(-7.74596669241485,34.,-14.7));
#1583=CARTESIAN_POINT('',(-7.74596669241485,32.,-13.2));
#1584=CARTESIAN_POINT('Origin',(-1.31338296214879E-14,32.,-13.2));
#1585=CARTESIAN_POINT('Origin',(-1.42440526461131E-14,32.,-14.7));
#1586=CARTESIAN_POINT('Origin',(-45.5,30.,-13.1999999999999));
#1587=CARTESIAN_POINT('',(-45.5,32.,-14.6999999999999));
#1588=CARTESIAN_POINT('',(-47.5,30.,-14.6999999999999));
#1589=CARTESIAN_POINT('Origin',(-45.5,30.,-14.6999999999999));
#1590=CARTESIAN_POINT('',(-47.5,30.,-13.1999999999999));
#1591=CARTESIAN_POINT('',(-45.5,32.,-13.1999999999999));
#1592=CARTESIAN_POINT('Origin',(-47.5,20.,-13.1999999999999));
#1593=CARTESIAN_POINT('',(-47.5,22.,-14.6999999999999));
#1594=CARTESIAN_POINT('',(-47.5,32.,-14.6999999999999));
#1595=CARTESIAN_POINT('',(-47.5,22.,-13.1999999999999));
#1596=CARTESIAN_POINT('Origin',(-49.5,22.,-13.1999999999999));
#1597=CARTESIAN_POINT('',(-49.5,20.,-14.6999999999999));
#1598=CARTESIAN_POINT('Origin',(-49.5,22.,-14.6999999999999));
#1599=CARTESIAN_POINT('',(-49.5,20.,-13.1999999999999));
#1600=CARTESIAN_POINT('Origin',(-69.6867993238318,18.,-13.1999999999999));
#1601=CARTESIAN_POINT('',(-69.6867993238318,20.,-14.6999999999999));
#1602=CARTESIAN_POINT('',(-70.6787822323561,16.2633451957296,-14.6999999999999));
#1603=CARTESIAN_POINT('Origin',(-69.6867993238318,18.,-14.6999999999999));
#1604=CARTESIAN_POINT('',(-70.6787822323561,16.2633451957296,-13.1999999999999));
#1605=CARTESIAN_POINT('',(-69.6867993238318,20.,-13.1999999999999));
#1606=CARTESIAN_POINT('Origin',(-1.11743947428521E-14,140.,-13.1999999999999));
#1607=CARTESIAN_POINT('Origin',(-1.22846177674773E-14,140.,-14.6999999999999));
#1608=CARTESIAN_POINT('Origin',(-1.31338296214879E-14,32.,-13.2));
#1609=CARTESIAN_POINT('',(-2.75000000000001,32.,-14.7));
#1610=CARTESIAN_POINT('Origin',(-1.42440526461131E-14,32.,-14.7));
#1611=CARTESIAN_POINT('',(-2.75000000000001,32.,-13.2));
#1612=CARTESIAN_POINT('Origin',(47.5,32.,-13.2));
#1613=CARTESIAN_POINT('',(47.5,-12.2607821308152,-14.7));
#1614=CARTESIAN_POINT('Origin',(-47.5,32.,-13.1999999999999));
#1615=CARTESIAN_POINT('',(47.5,32.,-14.7));
#1616=CARTESIAN_POINT('Origin',(-76.852130744697,20.,-13.1999999999999));
#1617=CARTESIAN_POINT('',(-76.852130744697,20.,-14.6999999999999));
#1618=CARTESIAN_POINT('Origin',(-1.22846177674773E-14,17.75,-14.7));
#1619=UNCERTAINTY_MEASURE_WITH_UNIT(LENGTH_MEASURE(0.01),#1623,
'DISTANCE_ACCURACY_VALUE',
'Maximum model space distance between geometric entities at asserted c
onnectivities');
#1620=UNCERTAINTY_MEASURE_WITH_UNIT(LENGTH_MEASURE(0.01),#1623,
'DISTANCE_ACCURACY_VALUE',
'Maximum model space distance between geometric entities at asserted c
onnectivities');
#1621=(
GEOMETRIC_REPRESENTATION_CONTEXT(3)
GLOBAL_UNCERTAINTY_ASSIGNED_CONTEXT((#1619))
GLOBAL_UNIT_ASSIGNED_CONTEXT((#1623,#1625,#1626))
REPRESENTATION_CONTEXT('','3D')
);
#1622=(
GEOMETRIC_REPRESENTATION_CONTEXT(3)
GLOBAL_UNCERTAINTY_ASSIGNED_CONTEXT((#1620))
GLOBAL_UNIT_ASSIGNED_CONTEXT((#1623,#1625,#1626))
REPRESENTATION_CONTEXT('','3D')
);
#1623=(
LENGTH_UNIT()
NAMED_UNIT(*)
SI_UNIT(.MILLI.,.METRE.)
);
#1624=(
LENGTH_UNIT()
NAMED_UNIT(*)
SI_UNIT($,.METRE.)
);
#1625=(
NAMED_UNIT(*)
PLANE_ANGLE_UNIT()
SI_UNIT($,.RADIAN.)
);
#1626=(
NAMED_UNIT(*)
SI_UNIT($,.STERADIAN.)
SOLID_ANGLE_UNIT()
);
#1627=SHAPE_DEFINITION_REPRESENTATION(#1628,#1629);
#1628=PRODUCT_DEFINITION_SHAPE('',$,#1631);
#1629=SHAPE_REPRESENTATION('',(#967),#1621);
#1630=PRODUCT_DEFINITION_CONTEXT('part definition',#1635,'design');
#1631=PRODUCT_DEFINITION('sensor_mounts','sensor_mounts',#1632,#1630);
#1632=PRODUCT_DEFINITION_FORMATION('',$,#1637);
#1633=PRODUCT_RELATED_PRODUCT_CATEGORY('sensor_mounts','sensor_mounts',
(#1637));
#1634=APPLICATION_PROTOCOL_DEFINITION('international standard',
'ap242_managed_model_based_3d_engineering',2011,#1635);
#1635=APPLICATION_CONTEXT('Managed model based 3d engineering');
#1636=PRODUCT_CONTEXT('part definition',#1635,'mechanical');
#1637=PRODUCT('sensor_mounts','sensor_mounts',$,(#1636));
#1638=PRESENTATION_STYLE_ASSIGNMENT((#1639));
#1639=SURFACE_STYLE_USAGE(.BOTH.,#1640);
#1640=SURFACE_SIDE_STYLE('',(#1641));
#1641=SURFACE_STYLE_FILL_AREA(#1642);
#1642=FILL_AREA_STYLE('Steel - Satin',(#1643));
#1643=FILL_AREA_STYLE_COLOUR('Steel - Satin',#1644);
#1644=COLOUR_RGB('Steel - Satin',0.627450980392157,0.627450980392157,0.627450980392157);
ENDSEC;
END-ISO-10303-21;
